<?xml version="1.0" standalone="no"?>
<!DOCTYPE svg PUBLIC "-//W3C//DTD SVG 20010904//EN"
 "http://www.w3.org/TR/2001/REC-SVG-20010904/DTD/svg10.dtd">
<svg version="1.0" xmlns="http://www.w3.org/2000/svg"
 width="247.000000pt" height="248.000000pt" viewBox="0 0 247.000000 248.000000"
 preserveAspectRatio="xMidYMid meet">
<metadata>
Created by potrace 1.16, written by Peter Selinger 2001-2019
</metadata>
<g transform="translate(0.000000,248.000000) scale(0.100000,-0.100000)"
fill="#000000" stroke="none">
<path d="M0 1240 l0 -1240 1235 0 1235 0 0 1240 0 1240 -1235 0 -1235 0 0
-1240z m964 865 c9 -24 -3 -42 -33 -48 -46 -10 -61 -32 -61 -92 0 -101 42
-210 252 -655 75 -157 154 -325 177 -374 23 -49 43 -87 45 -85 2 2 56 114 120
249 64 135 120 246 125 248 5 2 11 -8 15 -22 6 -26 -3 -48 -232 -531 -46 -99
-91 -195 -98 -212 -11 -26 -20 -33 -43 -33 -27 0 -34 12 -241 453 -117 248
-237 501 -267 561 -150 300 -300 471 -429 491 -49 7 -58 16 -49 45 6 19 16 20
360 20 304 0 354 -2 359 -15z m1253 0 c21 -21 3 -41 -43 -48 -101 -17 -200
-102 -307 -264 -36 -55 -72 -112 -78 -127 -16 -35 -27 -33 -34 8 -5 24 2 59
25 127 18 51 35 119 37 150 5 52 3 60 -20 83 -14 14 -35 26 -46 26 -25 0 -34
14 -26 40 6 19 15 20 241 20 198 0 238 -2 251 -15z m-748 -412 c25 -8 76 -28
113 -44 82 -36 106 -37 118 -4 11 28 35 33 44 9 3 -9 6 -109 6 -224 0 -177 -2
-209 -16 -221 -19 -16 -25 -8 -54 69 -69 182 -180 327 -287 374 -97 43 -217
-4 -299 -117 l-22 -29 -26 52 c-14 28 -26 58 -26 65 0 24 121 72 230 91 43 8
170 -4 219 -21z m-679 -344 c0 -5 35 -83 78 -172 76 -156 79 -166 85 -252 16
-232 105 -403 245 -472 66 -32 192 -43 281 -23 78 17 169 62 224 110 44 39 67
45 67 16 0 -8 -28 -40 -63 -72 -301 -282 -738 -188 -933 199 -89 176 -99 422
-24 620 19 51 40 75 40 46z"/>
</g>
</svg>
