<?xml version="1.0" encoding="UTF-8"?>
<svg version="1.1" xmlns="http://www.w3.org/2000/svg" width="247" height="248">
<path d="M0 0 C81.51 0 163.02 0 247 0 C247 81.84 247 163.68 247 248 C165.49 248 83.98 248 0 248 C0 166.16 0 84.32 0 0 Z " fill="#441624" transform="translate(0,0)"/>
<path d="M0 0 C23.76 0 47.52 0 72 0 C72.495 2.475 72.495 2.475 73 5 C72.43410156 5.19335938 71.86820312 5.38671875 71.28515625 5.5859375 C70.18494141 5.97652344 70.18494141 5.97652344 69.0625 6.375 C68.33160156 6.63023438 67.60070312 6.88546875 66.84765625 7.1484375 C64.81317884 7.85271413 64.81317884 7.85271413 64 10 C61.46150736 25.11556983 69.3605389 42.41462639 77 55 C79.13364694 59.23408537 80.42330725 63.27111942 81 68 C81.66 68 82.32 68 83 68 C83.1959375 68.53625 83.391875 69.0725 83.59375 69.625 C87.08535692 78.77541814 91.6282402 87.39435336 96.07470703 96.10546875 C97.84696811 99.60582749 99.50428333 103.06864667 100.875 106.75 C102.85759842 111.85717354 105.29980342 116.67486994 107.828125 121.53125 C109 124 109 124 109 126 C109.99 126 110.98 126 112 126 C112.09023437 125.16339844 112.18046875 124.32679688 112.2734375 123.46484375 C113.11530562 119.45012857 114.72651353 116.1547212 116.625 112.5625 C117.35454648 111.14409298 118.08237249 109.7247999 118.80859375 108.3046875 C119.17581543 107.58893555 119.54303711 106.87318359 119.92138672 106.13574219 C121.5798622 102.8518256 123.14133261 99.52546338 124.6875 96.1875 C124.97270508 95.57245605 125.25791016 94.95741211 125.55175781 94.32373047 C127.74196872 89.58419527 129.90650677 84.83293699 132.0546875 80.07421875 C132.67879439 78.70479412 133.32697203 77.34605594 134 76 C134.66 76 135.32 76 136 76 C138.15633743 83.24203892 135.07684368 88.05269252 131.75 94.5 C130.7437624 96.5099017 129.73852897 98.52030649 128.734375 100.53125 C128.25693848 101.47653564 127.77950195 102.42182129 127.28759766 103.39575195 C125.72627417 106.55362787 124.34254798 109.74369573 123 113 C120.21847113 119.45008072 117.17763979 125.73638311 114 132 C113.00969429 133.97686026 112.02236253 135.9551844 111.03515625 137.93359375 C110.27619389 139.44865446 109.51249368 140.96134424 108.74609375 142.47265625 C106.32838985 147.25754486 104.04675508 152.04469822 102 157 C100.02 157 98.04 157 96 157 C95.55269531 156.03320312 95.10539062 155.06640625 94.64453125 154.0703125 C90.8834892 145.96262068 87.05841847 137.9016149 82.9453125 129.96484375 C81.16292746 126.48988377 79.58913018 123.02161411 78.1875 119.375 C76.53886269 115.14955556 74.61329148 111.10437775 72.5625 107.0625 C63.99370507 90.1560662 63.99370507 90.1560662 62 82 C61.34 82 60.68 82 60 82 C59.81566406 81.49855469 59.63132813 80.99710937 59.44140625 80.48046875 C57.0299516 74.18925151 54.24123862 68.09369086 51.375 62 C50.97869385 61.15074951 50.5823877 60.30149902 50.17407227 59.42651367 C49.79436279 58.62576416 49.41465332 57.82501465 49.0234375 57 C48.68231934 56.278125 48.34120117 55.55625 47.98974609 54.8125 C47.0174494 52.82964026 47.0174494 52.82964026 45 51 C44.30570271 49.35682975 43.61333565 47.71280673 42.93261719 46.06396484 C41.15527517 42.13054877 38.86994402 38.49238796 36.625 34.8125 C36.15578125 34.01908203 35.6865625 33.22566406 35.203125 32.40820312 C32.56053974 28.06107737 30.18186983 25.01584072 26 22 C25.360625 21.01 24.72125 20.02 24.0625 19 C21.74545202 15.62974839 19.45189538 14.12989289 16 12 C15.484375 11.46375 14.96875 10.9275 14.4375 10.375 C10.51504423 6.62308578 5.13103233 6.5217999 0 6 C0 4.02 0 2.04 0 0 Z " fill="#ECEAEA" transform="translate(24,36)"/>
<path d="M0 0 C2.00720923 0.28674418 4.0085944 0.61866701 6 1 C4.02 1.99 4.02 1.99 2 3 C2.61919078 4.46080933 3.24556692 5.91857455 3.875 7.375 C4.22304687 8.18710938 4.57109375 8.99921875 4.9296875 9.8359375 C5.92446067 12.13802299 5.92446067 12.13802299 8 14 C8.40992187 13.4946875 8.81984375 12.989375 9.2421875 12.46875 C9.78101562 11.8190625 10.31984375 11.169375 10.875 10.5 C11.40867187 9.8503125 11.94234375 9.200625 12.4921875 8.53125 C12.98976563 8.0259375 13.48734375 7.520625 14 7 C14.66 7 15.32 7 16 7 C16 6.34 16 5.68 16 5 C22.59969746 0.4372462 27.99705945 -1.12651363 36 0 C38.84404752 0.78951477 41.29897196 1.77689296 44 3 C44 3.66 44 4.32 44 5 C44.72316406 5.21914062 45.44632813 5.43828125 46.19140625 5.6640625 C55.11049354 9.90652127 61.60591075 22.18364621 65 31 C65 31.99 65 32.98 65 34 C64.34 34 63.68 34 63 34 C62.34 32.35 61.68 30.7 61 29 C58.3567931 30.32160345 58.19296691 31.48955857 57.08203125 34.19921875 C56.71827393 35.07199463 56.3545166 35.94477051 55.97973633 36.84399414 C55.59454834 37.78235107 55.20936035 38.72070801 54.8125 39.6875 C51.19399187 48.32163209 47.30658809 56.68489316 43 65 C41.87026549 67.20591501 40.74505525 69.41415461 39.625 71.625 C39.14289063 72.56601563 38.66078125 73.50703125 38.1640625 74.4765625 C37.15081279 76.67307025 36.47676918 78.6383294 36 81 C35.01 81 34.02 81 33 81 C28.89783375 72.9874571 24.90906154 64.96898755 21.375 56.6875 C18.96576566 51.04544908 16.28661548 45.67561801 13.28125 40.3203125 C10.20775009 34.75427913 8.41034733 29.18383058 7 23 C6.34 23 5.68 23 5 23 C4.5875 21.845 4.175 20.69 3.75 19.5 C2.63289297 16.4601799 1.32244309 13.70321362 -0.25 10.875 C-1.77710077 7.93112133 -2.00222236 7.04074319 -1.8125 3.5625 C-1 1 -1 1 0 0 Z " fill="#451826" transform="translate(100,81)"/>
<path d="M0 0 C3 1 3 1 4.03515625 3.0546875 C4.37417969 3.98539062 4.71320313 4.91609375 5.0625 5.875 C6.61371659 9.90530815 8.27035453 13.57095968 10.4765625 17.28515625 C16.58819577 27.67859247 19.2485185 36.12208903 19.71875 48.1953125 C20.28752077 62.26848857 25.91118514 75.14010477 36 85 C46.57334606 92.62972652 59.43533332 92.29240283 72 91 C77.07790012 89.79551874 81.44163767 87.50644994 86 85 C87.65684019 84.30927371 89.32050518 83.63365556 91 83 C91 82.34 91 81.68 91 81 C96.35714286 76 96.35714286 76 100 76 C99.91793295 78.79027973 99.48108848 80.50498527 97.515625 82.52734375 C96.32257306 83.52920147 95.11330197 84.51214315 93.88671875 85.47265625 C91.93502139 86.97115119 91.93502139 86.97115119 90.265625 88.92578125 C87.19007519 91.74150013 83.80133438 93.33226811 80.0625 95.125 C79.35931641 95.47175781 78.65613281 95.81851563 77.93164062 96.17578125 C65.00053606 102.50196361 51.08514528 104.54553443 37.1875 99.9375 C28.88244267 96.84724611 20.95731939 92.69684869 15 86 C15 85.34 15 84.68 15 84 C14.401875 83.74863281 13.80375 83.49726563 13.1875 83.23828125 C10.70909773 81.83532853 9.62974649 80.50368862 8 78.1875 C6.40648384 75.94878301 4.86495739 73.85169191 3.01171875 71.81640625 C0.31542722 68.0415981 -0.8413702 64.15551571 -2.1875 59.75 C-2.69940115 58.11902959 -3.2136007 56.48877817 -3.73046875 54.859375 C-3.95114014 54.14233398 -4.17181152 53.42529297 -4.39916992 52.68652344 C-4.86810518 50.98896177 -4.86810518 50.98896177 -6 50 C-8.53512625 34.106017 -8.90541002 15.40769531 -1 1 C-0.67 0.67 -0.34 0.34 0 0 Z " fill="#FAF7F8" transform="translate(77,114)"/>
<path d="M0 0 C81.51 0 163.02 0 247 0 C247 19.8 247 39.6 247 60 C244.22222826 57.22222826 244.32092678 54.8549654 243.6875 51 C242.26272118 43.17588606 240.15978341 35.74199177 234.1875 30.125 C233.465625 29.42375 232.74375 28.7225 232 28 C232 26.68 232 25.36 232 24 C230.68 23.67 229.36 23.34 228 23 C228 22.34 228 21.68 228 21 C226.02 20.01 226.02 20.01 224 19 C224 18.01 224 17.02 224 16 C223.4225 15.87625 222.845 15.7525 222.25 15.625 C219.97664233 14.99351176 218.0746471 14.11141809 216 13 C216 12.34 216 11.68 216 11 C211.7494534 9.14038586 207.50066475 8.06795435 203 7 C203 6.34 203 5.68 203 5 C202.28972656 4.93941406 201.57945312 4.87882813 200.84765625 4.81640625 C199.92855469 4.73261719 199.00945312 4.64882812 198.0625 4.5625 C197.14597656 4.48128906 196.22945312 4.40007813 195.28515625 4.31640625 C193 4 193 4 192 3 C190.47943481 2.88989615 188.95382142 2.84873514 187.42933655 2.83505249 C186.44112915 2.82381851 185.45292175 2.81258453 184.43476868 2.80101013 C183.34133652 2.79368362 182.24790436 2.78635712 181.12133789 2.77880859 C179.9765799 2.7673027 178.8318219 2.75579681 177.65237427 2.74394226 C173.84249612 2.70706534 170.0326013 2.67752388 166.22265625 2.6484375 C163.58002991 2.6253283 160.93740601 2.60193803 158.29478455 2.57827759 C152.74041246 2.52937115 147.18601753 2.48472385 141.6315918 2.44238281 C135.22935715 2.39351021 128.8272203 2.33719218 122.42508322 2.27696168 C116.92179826 2.2254048 111.4184881 2.17811783 105.91513628 2.13427413 C102.63174731 2.10810123 99.34839654 2.08002067 96.06505013 2.0489006 C92.39112395 2.01482141 88.71720845 1.98773266 85.04321289 1.96240234 C83.96799881 1.95102737 82.89278473 1.9396524 81.7849884 1.92793274 C71.11645072 1.45616122 71.11645072 1.45616122 61 4 C58.95762481 3.96817829 56.91574399 3.90009574 54.875 3.8125 C48.62931635 3.73658561 45.32710895 4.90059115 40 8 C38.68 8 37.36 8 36 8 C36 8.66 36 9.32 36 10 C34.948125 10.4125 33.89625 10.825 32.8125 11.25 C29.38185495 12.72813364 26.82736259 14.52605773 24 17 C23.40832031 17.47824219 22.81664063 17.95648437 22.20703125 18.44921875 C21.58183594 18.96097656 20.95664062 19.47273438 20.3125 20 C19.73113281 20.474375 19.14976563 20.94875 18.55078125 21.4375 C16.83396198 23.16729271 16.06680337 24.82389113 15 27 C14.52691406 27.45761719 14.05382813 27.91523438 13.56640625 28.38671875 C11.41366814 30.60387795 10.29851908 33.04521056 8.9375 35.8125 C8.43089844 36.82957031 7.92429687 37.84664062 7.40234375 38.89453125 C5.13275537 43.92049995 3.68217805 49.02745345 2.375 54.375 C2.11460938 55.43460938 1.85421875 56.49421875 1.5859375 57.5859375 C1.39257812 58.38257813 1.19921875 59.17921875 1 60 C0.67 60 0.34 60 0 60 C0 40.2 0 20.4 0 0 Z " fill="#020001" transform="translate(0,0)"/>
<path d="M0 0 C0.33 0 0.66 0 1 0 C1.19335938 1.03898438 1.38671875 2.07796875 1.5859375 3.1484375 C3.00873389 10.7757241 4.44669656 18.3979502 6 26 C6.66 26 7.32 26 8 26 C8 26.66 8 27.32 8 28 C8.66 28 9.32 28 10 28 C10.2475 28.70125 10.495 29.4025 10.75 30.125 C13.64786677 36.79009357 17.95813687 41.97209125 24 46 C24 46.66 24 47.32 24 48 C25.485 48.495 25.485 48.495 27 49 C27 49.66 27 50.32 27 51 C27.71027344 51.26941406 28.42054687 51.53882813 29.15234375 51.81640625 C33.03990226 53.43222275 36.68027543 55.45906753 40.37890625 57.46484375 C49.96557062 61.52909305 59.28643386 62.44261479 69.60864258 62.40405273 C70.9127861 62.41091599 72.21692963 62.41777924 73.56059265 62.42485046 C77.10217149 62.44262742 80.64350048 62.44164271 84.18511033 62.43590808 C87.15925417 62.43279272 90.13335162 62.43893471 93.10748881 62.44494683 C100.1339552 62.45894055 107.16029989 62.45747478 114.18676758 62.44604492 C121.39525256 62.43457686 128.60336489 62.44862889 135.81180078 62.4754414 C142.03730508 62.49771647 148.26269344 62.50420917 154.4882347 62.49836498 C158.19030961 62.49502125 161.89214602 62.49723529 165.59418678 62.51461601 C192.37654593 63.14814128 192.37654593 63.14814128 216 52 C221.66871166 48 221.66871166 48 224 48 C224.37125 47.13375 224.37125 47.13375 224.75 46.25 C226.18299988 43.67060021 227.78424676 41.93878408 230 40 C230.66 40 231.32 40 232 40 C232.33 38.35 232.66 36.7 233 35 C233.99 34.67 234.98 34.34 236 34 C237.13327572 31.66767925 237.13327572 31.66767925 238 29 C238.46019531 27.98873047 238.46019531 27.98873047 238.9296875 26.95703125 C242.59020883 18.65279072 244.18810081 9.8474652 246 1 C246.33 1 246.66 1 247 1 C247 21.79 247 42.58 247 64 C165.49 64 83.98 64 0 64 C0 42.88 0 21.76 0 0 Z " fill="#050002" transform="translate(0,184)"/>
<path d="M0 0 C3.24745514 4.13312472 5 6.63932628 5 12 C5.66 12 6.32 12 7 12 C9.13241404 16.11251279 11.10562316 20.16882886 12.75 24.5 C14.52064236 29.05208449 16.65010557 33.34687652 18.875 37.6875 C22.22199085 44.2184789 25.02022396 50.81907263 27.578125 57.6953125 C29.05539152 61.12873962 30.92554358 63.89815625 33 67 C34.34143803 69.66171342 35.52009288 72.38324647 36.6875 75.125 C36.99494141 75.82753906 37.30238281 76.53007812 37.61914062 77.25390625 C39.00965349 80.47308045 40.21474765 83.58483529 41 87 C43.88904363 87.30110818 43.88904363 87.30110818 47 86 C48.82830202 82.85333053 49.8438301 79.43923957 51 76 C54.1702377 68.22321283 57.83883001 60.6571613 63 54 C63.495 58.455 63.495 58.455 64 63 C63.195625 63.45375 62.39125 63.9075 61.5625 64.375 C58.91143428 65.74725665 58.91143428 65.74725665 58 68 C57.34 68 56.68 68 56 68 C56 68.66 56 69.32 56 70 C56.99 70.495 56.99 70.495 58 71 C57.01 71.495 57.01 71.495 56 72 C55.6451046 73.99628664 55.31421071 75.99690671 55 78 C54.04348394 80.32296757 53.01645286 81.97959845 51.4375 83.9375 C49.79371058 86.29598047 49.39201607 88.17748429 49 91 C48.34 91 47.68 91 47 91 C47 92.32 47 93.64 47 95 C47.66 95 48.32 95 49 95 C49 95.66 49 96.32 49 97 C50.32 97 51.64 97 53 97 C52.67 96.01 52.34 95.02 52 94 C56.29 94.66 60.58 95.32 65 96 C65 96.66 65 97.32 65 98 C66.953125 97.47916667 68.90625 96.95833333 70.859375 96.4375 C73 96 73 96 77 96 C77 95.34 77 94.68 77 94 C78.32 93.34 79.64 92.68 81 92 C81 91.01 81 90.02 81 89 C82.98 88.67 84.96 88.34 87 88 C87 88.66 87 89.32 87 90 C87.66 90.33 88.32 90.66 89 91 C86.39704724 92.31495542 83.79271967 93.62704986 81.1875 94.9375 C80.44951172 95.31068359 79.71152344 95.68386719 78.95117188 96.06835938 C78.23896484 96.42607422 77.52675781 96.78378906 76.79296875 97.15234375 C76.1383667 97.48226318 75.48376465 97.81218262 74.80932617 98.15209961 C69.61736002 100.58519884 64.56348185 100.25952465 58.9375 100.3125 C57.43799805 100.35600586 57.43799805 100.35600586 55.90820312 100.40039062 C47.82326708 100.46868443 40.71327633 99.09439694 34.375 93.8125 C33.59125 92.884375 32.8075 91.95625 32 91 C31.38511719 90.39671875 30.77023438 89.7934375 30.13671875 89.171875 C19.77299965 78.63249964 16.16172274 65.03446725 15.94921875 50.53515625 C15.7661955 41.97159452 13.44460125 36.14841657 9.2109375 28.91015625 C6.79867332 24.7698453 4.88080781 20.46478724 3 16.0625 C2.69755371 15.35754395 2.39510742 14.65258789 2.08349609 13.92626953 C1.38384346 12.28636902 0.69110034 10.64352299 0 9 C-0.99 9.33 -1.98 9.66 -3 10 C-4.22520264 13.00847418 -4.22520264 13.00847418 -5 16 C-6.1157177 12.65284689 -6.1807689 11.28928478 -5 8 C-2.4375 6.6875 -2.4375 6.6875 0 6 C0 4.02 0 2.04 0 0 Z " fill="#672E3F" transform="translate(79,106)"/>
<path d="M0 0 C4.06923787 1.79803534 7.67501273 2.70290707 12.1105957 3.15551758 C12.4405957 1.50551758 12.7705957 -0.14448242 13.1105957 -1.84448242 C14.1005957 -1.84448242 15.0905957 -1.84448242 16.1105957 -1.84448242 C17.26469824 0.46372266 17.2316254 1.76336034 17.22412109 4.32983398 C17.2240078 5.62094589 17.2240078 5.62094589 17.22389221 6.93814087 C17.21873093 7.86839081 17.21356964 8.79864075 17.20825195 9.75708008 C17.20683701 10.70868011 17.20542206 11.66028015 17.20396423 12.64071655 C17.19835582 15.68734855 17.1858019 18.7339077 17.1730957 21.78051758 C17.16808179 23.84301652 17.16351869 25.90551661 17.15942383 27.96801758 C17.14838366 33.03054575 17.13111337 38.0930193 17.1105957 43.15551758 C15.7905957 43.48551758 14.4705957 43.81551758 13.1105957 44.15551758 C10.35391568 40.20028103 9.5788078 36.93128096 9.1105957 32.15551758 C8.4505957 32.15551758 7.7905957 32.15551758 7.1105957 32.15551758 C6.78188477 31.35500977 6.78188477 31.35500977 6.4465332 30.53833008 C1.93462897 19.93718925 -3.53076808 8.94416723 -13.8894043 3.15551758 C-13.8894043 2.49551758 -13.8894043 1.83551758 -13.8894043 1.15551758 C-20.57204485 -0.86188334 -28.36805133 -2.70146668 -35.0769043 0.05395508 C-36.72239652 1.02068176 -38.31187582 2.08145564 -39.8894043 3.15551758 C-40.5494043 3.15551758 -41.2094043 3.15551758 -41.8894043 3.15551758 C-41.8894043 3.81551758 -41.8894043 4.47551758 -41.8894043 5.15551758 C-43.5290764 6.52191099 -45.20050557 7.85045947 -46.8894043 9.15551758 C-48.24087567 10.4704627 -49.58052971 11.79816616 -50.8894043 13.15551758 C-55.31797573 5.86980329 -55.31797573 5.86980329 -55.8894043 1.15551758 C-36.76923357 -9.11272226 -19.39443652 -8.6684786 0 0 Z " fill="#F3EFF1" transform="translate(157.889404296875,82.844482421875)"/>
<path d="M0 0 C0.85049423 0.00222061 1.70098846 0.00444122 2.57725525 0.00672913 C4.01863609 0.00684242 4.01863609 0.00684242 5.48913574 0.00695801 C7.05630592 0.01469994 7.05630592 0.01469994 8.65513611 0.02259827 C9.71913132 0.02401321 10.78312653 0.02542816 11.87936401 0.02688599 C15.29293069 0.03250388 18.70643286 0.04505941 22.11997986 0.05775452 C24.42792162 0.06276721 26.73586441 0.06733052 29.04380798 0.07142639 C34.71505412 0.08247912 40.38626238 0.09923465 46.05747986 0.12025452 C46.05747986 0.78025452 46.05747986 1.44025452 46.05747986 2.12025452 C46.71747986 2.12025452 47.37747986 2.12025452 48.05747986 2.12025452 C48.05747986 3.11025452 48.05747986 4.10025452 48.05747986 5.12025452 C46.17029236 5.42962952 46.17029236 5.42962952 44.24497986 5.74525452 C34.83208148 7.86835305 27.80498767 12.50017158 22.05747986 20.12025452 C20.72414653 21.45358785 19.39081319 22.78692118 18.05747986 24.12025452 C17.72747986 24.78025452 17.39747986 25.44025452 17.05747986 26.12025452 C16.39747986 26.12025452 15.73747986 26.12025452 15.05747986 26.12025452 C14.77662537 26.69098694 14.49577087 27.26171936 14.20640564 27.8497467 C13.07777628 30.08014472 11.89121796 32.26482716 10.67466736 34.44837952 C10.2299408 35.24759827 9.78521423 36.04681702 9.32701111 36.87025452 C8.8668158 37.69525452 8.40662048 38.52025452 7.93247986 39.37025452 C7.46455017 40.21072327 6.99662048 41.05119202 6.51451111 41.91712952 C5.36293463 43.98526687 4.21056595 46.05295858 3.05747986 48.12025452 C2.39747986 48.12025452 1.73747986 48.12025452 1.05747986 48.12025452 C-0.69916613 40.41803747 1.17860289 34.6751304 3.83091736 27.47572327 C5.40615476 23.16639546 6.22441359 19.64716573 6.30747986 15.05775452 C6.33326111 14.20052795 6.35904236 13.34330139 6.38560486 12.46009827 C6.24188354 10.07245366 6.24188354 10.07245366 4.74107361 8.35462952 C2.33014623 6.58698902 -0.01771804 6.44523253 -2.94252014 6.12025452 C-2.98524114 4.45413547 -2.98315846 2.78642567 -2.94252014 1.12025452 C-1.94252014 0.12025452 -1.94252014 0.12025452 0 0 Z " fill="#ECEAEA" transform="translate(174.94252014160156,35.87974548339844)"/>
<path d="M0 0 C1.93317833 -0.00043808 1.93317833 -0.00043808 3.90541077 -0.00088501 C7.41308735 -0.00145512 10.9206251 0.01024328 14.42826962 0.02426291 C18.10377869 0.03682775 21.77929149 0.03794528 25.45481873 0.04031372 C32.40316223 0.04651167 39.35144225 0.0628995 46.2997579 0.0830127 C54.21516376 0.10542437 62.13057278 0.11637834 70.04600251 0.12640357 C86.3177334 0.14726736 102.58940057 0.1824103 118.86108398 0.22705078 C118.86108398 0.88705078 118.86108398 1.54705078 118.86108398 2.22705078 C117.95496966 2.22566809 117.95496966 2.22566809 117.03055 2.22425747 C102.29776583 2.20212454 87.56498265 2.18560143 72.83218575 2.17523861 C65.70737229 2.17009338 58.58256998 2.16308464 51.45776367 2.15161133 C45.24413923 2.14161013 39.03052286 2.13518447 32.8168906 2.13296229 C29.53014872 2.13166438 26.24343515 2.12810373 22.95669937 2.12132072 C19.27784116 2.11403235 15.59903031 2.11306313 11.92016602 2.11352539 C10.84338089 2.10993011 9.76659576 2.10633484 8.65718079 2.10263062 C-2.01942656 1.68157995 -2.01942656 1.68157995 -12.13891602 4.22705078 C-14.01391602 4.39501953 -14.01391602 4.39501953 -16.13891602 4.41455078 C-17.19079102 4.43582031 -17.19079102 4.43582031 -18.26391602 4.45751953 C-20.13891602 4.22705078 -20.13891602 4.22705078 -22.13891602 2.22705078 C-14.65946031 0.22278808 -7.72043455 -0.04618715 0 0 Z " fill="#1B030B" transform="translate(73.138916015625,-0.22705078125)"/>
<path d="M0 0 C0.66 0 1.32 0 2 0 C4.15633743 7.24203892 1.07684368 12.05269252 -2.25 18.5 C-3.2562376 20.5099017 -4.26147103 22.52030649 -5.265625 24.53125 C-5.98177979 25.94917847 -5.98177979 25.94917847 -6.71240234 27.39575195 C-8.27372583 30.55362787 -9.65745202 33.74369573 -11 37 C-13.78099281 43.44883765 -16.81235994 49.74229678 -20 56 C-20.33 55.34 -20.66 54.68 -21 54 C-20.67 53.01 -20.34 52.02 -20 51 C-22.475 51.495 -22.475 51.495 -25 52 C-25 51.34 -25 50.68 -25 50 C-24.01 50 -23.02 50 -22 50 C-21.90976563 49.16339844 -21.81953125 48.32679688 -21.7265625 47.46484375 C-20.88469438 43.45012857 -19.27348647 40.1547212 -17.375 36.5625 C-16.64545352 35.14409298 -15.91762751 33.7247999 -15.19140625 32.3046875 C-14.82418457 31.58893555 -14.45696289 30.87318359 -14.07861328 30.13574219 C-12.4201378 26.8518256 -10.85866739 23.52546338 -9.3125 20.1875 C-9.02729492 19.57245605 -8.74208984 18.95741211 -8.44824219 18.32373047 C-6.25803128 13.58419527 -4.09349323 8.83293699 -1.9453125 4.07421875 C-1.32120561 2.70479412 -0.67302797 1.34605594 0 0 Z " fill="#E4D8DC" transform="translate(158,112)"/>
<path d="M0 0 C3.24745514 4.13312472 5 6.63932628 5 12 C5.66 12 6.32 12 7 12 C9.13241404 16.11251279 11.10562316 20.16882886 12.75 24.5 C15.92245528 32.64686516 19.9846959 40.59520962 24.2421875 48.2265625 C25 50 25 50 25 54 C24.34 54 23.68 54 23 54 C21.23537317 50.91190305 21 49.76687864 21 46 C20.01 46 19.02 46 18 46 C17.67 48.64 17.34 51.28 17 54 C16.67 54 16.34 54 16 54 C16.020625 53.16339844 16.04125 52.32679688 16.0625 51.46484375 C15.89972688 42.27833558 13.75466936 36.68926861 9.2109375 28.91015625 C6.79867332 24.7698453 4.88080781 20.46478724 3 16.0625 C2.69755371 15.35754395 2.39510742 14.65258789 2.08349609 13.92626953 C1.38384346 12.28636902 0.69110034 10.64352299 0 9 C-0.99 9.33 -1.98 9.66 -3 10 C-4.22520264 13.00847418 -4.22520264 13.00847418 -5 16 C-6.1157177 12.65284689 -6.1807689 11.28928478 -5 8 C-2.4375 6.6875 -2.4375 6.6875 0 6 C0 4.02 0 2.04 0 0 Z " fill="#734C59" transform="translate(79,106)"/>
<path d="M0 0 C1.875 0.3125 1.875 0.3125 4 1 C6.1519437 4.22791555 6.20086443 5.28400809 6 9 C6.99 9 7.98 9 9 9 C9.84584998 10.55575978 10.67618399 12.1199612 11.5 13.6875 C11.9640625 14.55761719 12.428125 15.42773438 12.90625 16.32421875 C14.04818792 19.11788829 14.21504208 21.01629113 14 24 C12.68 23.01 11.36 22.02 10 21 C10 22.32 10 23.64 10 25 C9.34 25 8.68 25 8 25 C7.67 24.34 7.34 23.68 7 23 C6.67 23.99 6.34 24.98 6 26 C6.66 26 7.32 26 8 26 C8 26.66 8 27.32 8 28 C7.01 27.67 6.02 27.34 5 27 C5 26.34 5 25.68 5 25 C4.01 25 3.02 25 2 25 C-0.38858824 16.63994116 -0.190218 8.61264844 0 0 Z " fill="#652B3D" transform="translate(96,151)"/>
<path d="M0 0 C2.74975389 1.08026046 3.98995599 1.98700946 5.82421875 4.359375 C11.86082924 11.68567427 21.15525226 15.24563948 30 18 C30 18.33 30 18.66 30 19 C28.41773035 19.19627391 26.83410729 19.38165538 25.25 19.5625 C24.36828125 19.66691406 23.4865625 19.77132812 22.578125 19.87890625 C20.0534362 19.99749012 18.34253077 19.93191985 16 19 C15.34 18.01 14.68 17.02 14 16 C11.41619823 15.74969023 11.41619823 15.74969023 9 16 C9 13.69 9 11.38 9 9 C8.071875 9.350625 7.14375 9.70125 6.1875 10.0625 C3 11 3 11 0 10 C0.185625 9.4225 0.37125 8.845 0.5625 8.25 C1.04500232 5.76855951 0.71703433 4.39011444 0 2 C0 1.34 0 0.68 0 0 Z " fill="#673444" transform="translate(88,196)"/>
<path d="M0 0 C0.33 1.32 0.66 2.64 1 4 C1.99 4 2.98 4 4 4 C5.17482324 7.47454806 5.06339535 7.8675142 3.34765625 11.453125 C2.59841315 12.72617522 1.83617987 13.99165126 1.0625 15.25 C0.67642578 15.8996875 0.29035156 16.549375 -0.10742188 17.21875 C-1.06058418 18.81912129 -2.02885924 20.4104742 -3 22 C-3.66 22 -4.32 22 -5 22 C-6.52791854 14.23308076 -5.13590328 9.20046461 -2 2 C-1.34 2 -0.68 2 0 2 C0 1.34 0 0.68 0 0 Z " fill="#E2DDDF" transform="translate(181,62)"/>
<path d="M0 0 C4.83210992 4.17981799 7.17504075 8.80046341 9.8125 14.5625 C10.21919922 15.41263672 10.62589844 16.26277344 11.04492188 17.13867188 C12.91416166 21.14418569 14 23.48412379 14 28 C13.34 28 12.68 28 12 28 C10.23537317 24.91190305 10 23.76687864 10 20 C9.01 20 8.02 20 7 20 C6.67 22.64 6.34 25.28 6 28 C5.67 28 5.34 28 5 28 C4.97421875 27.0821875 4.9484375 26.164375 4.921875 25.21875 C4.61595275 18.5997049 4.27518966 13.41584116 0.85546875 7.6875 C-0.44121999 5.12964825 -0.27965026 2.7965026 0 0 Z " fill="#673B4A" transform="translate(90,132)"/>
<path d="M0 0 C23.76 0 47.52 0 72 0 C72 0.33 72 0.66 72 1 C48.9 1 25.8 1 2 1 C2 1.66 2 2.32 2 3 C2.99 3.33 3.98 3.66 5 4 C4.67 4.66 4.34 5.32 4 6 C2.68 6 1.36 6 0 6 C0 4.02 0 2.04 0 0 Z " fill="#DBCDD2" transform="translate(24,36)"/>
<path d="M0 0 C1.65 0.66 3.3 1.32 5 2 C5 3.65 5 5.3 5 7 C4.01 7.495 4.01 7.495 3 8 C2.34 7.34 1.68 6.68 1 6 C0.2575 6.763125 -0.485 7.52625 -1.25 8.3125 C-4 11 -4 11 -6.25 12.625 C-8.29712875 13.97372834 -8.29712875 13.97372834 -9 17 C-11.64 17 -14.28 17 -17 17 C-15.19489116 14.90987397 -13.9974669 13.99903501 -11.375 13 C-10.199375 12.505 -10.199375 12.505 -9 12 C-8.67 11.01 -8.34 10.02 -8 9 C-6.27870503 7.37995767 -4.45074522 5.96124214 -2.59375 4.5 C-0.73155509 2.98483163 -0.73155509 2.98483163 0 0 Z " fill="#562332" transform="translate(177,191)"/>
<path d="M0 0 C0.495 0.99 0.495 0.99 1 2 C1.66 2.33 2.32 2.66 3 3 C0.39704724 4.31495542 -2.20728033 5.62704986 -4.8125 6.9375 C-5.55048828 7.31068359 -6.28847656 7.68386719 -7.04882812 8.06835938 C-7.76103516 8.42607422 -8.47324219 8.78378906 -9.20703125 9.15234375 C-10.18893433 9.6472229 -10.18893433 9.6472229 -11.19067383 10.15209961 C-14.71906166 11.80559994 -17.47729743 12.11890996 -21.32421875 12.09765625 C-22.35224609 12.09443359 -23.38027344 12.09121094 -24.43945312 12.08789062 C-25.51130859 12.07951172 -26.58316406 12.07113281 -27.6875 12.0625 C-28.77095703 12.05798828 -29.85441406 12.05347656 -30.97070312 12.04882812 C-33.64719085 12.03703743 -36.32356777 12.02058063 -39 12 C-39 11.67 -39 11.34 -39 11 C-32.07 11 -25.14 11 -18 11 C-18 10.34 -18 9.68 -18 9 C-13.545 8.505 -13.545 8.505 -9 8 C-9 7.34 -9 6.68 -9 6 C-7.68 5.34 -6.36 4.68 -5 4 C-5 3.01 -5 2.02 -5 1 C-3.35 0.67 -1.7 0.34 0 0 Z " fill="#744B57" transform="translate(165,194)"/>
<path d="M0 0 C2.00720923 0.28674418 4.0085944 0.61866701 6 1 C4.02 1.99 4.02 1.99 2 3 C2.5929915 4.46291304 3.19983823 5.92021513 3.8125 7.375 C4.14894531 8.18710938 4.48539062 8.99921875 4.83203125 9.8359375 C5.94439082 12.30147458 5.94439082 12.30147458 9 14 C9 14.66 9 15.32 9 16 C8.01 16 7.02 16 6 16 C6 15.34 6 14.68 6 14 C4.68 14.33 3.36 14.66 2 15 C-2.06172751 8.13167107 -2.06172751 8.13167107 -1.8125 3.5625 C-1 1 -1 1 0 0 Z " fill="#4A2331" transform="translate(100,81)"/>
<path d="M0 0 C4.29 0.66 8.58 1.32 13 2 C13 2.66 13 3.32 13 4 C13.99 4.33 14.98 4.66 16 5 C12.54173658 5.05789006 9.08359707 5.09355821 5.625 5.125 C4.64015625 5.14175781 3.6553125 5.15851563 2.640625 5.17578125 C1.69960937 5.18222656 0.75859375 5.18867188 -0.2109375 5.1953125 C-1.51490479 5.21102295 -1.51490479 5.21102295 -2.84521484 5.22705078 C-5 5 -5 5 -7 3 C-6.01 3 -5.02 3 -4 3 C-3.67 2.34 -3.34 1.68 -3 1 C-3 1.66 -3 2.32 -3 3 C-1.68 3 -0.36 3 1 3 C0.67 2.01 0.34 1.02 0 0 Z " fill="#612436" transform="translate(131,200)"/>
<path d="M0 0 C2.475 0.99 2.475 0.99 5 2 C5.3540919 8.51791392 5.03901852 13.17521449 2 19 C1.06576355 15.98968256 0.95550089 15.13349732 2 12 C1.34 11.67 0.68 11.34 0 11 C0.33 8.69 0.66 6.38 1 4 C0.34 3.67 -0.32 3.34 -1 3 C-0.67 2.01 -0.34 1.02 0 0 Z " fill="#301920" transform="translate(177,44)"/>
<path d="M0 0 C0.99 0.33 1.98 0.66 3 1 C2.071875 2.2065625 2.071875 2.2065625 1.125 3.4375 C-1.13495016 6.77967982 -1.84084827 10.00868518 -2.5078125 13.94921875 C-3 16 -3 16 -5 19 C-5.60421492 21.38082853 -6.1390323 23.77975094 -6.625 26.1875 C-6.88539062 27.45980469 -7.14578125 28.73210938 -7.4140625 30.04296875 C-7.60742188 31.01878906 -7.80078125 31.99460937 -8 33 C-8.33 33 -8.66 33 -9 33 C-9.62624988 20.68375236 -6.46410519 10.4387977 0 0 Z " fill="#4B202C" transform="translate(10,32)"/>
<path d="M0 0 C2.46278801 2.46278801 2.99771255 4.70676982 4 8 C1.33333333 8 -1.33333333 8 -4 8 C-4.33 8.99 -4.66 9.98 -5 11 C-5 10.34 -5 9.68 -5 9 C-5.99 9.33 -6.98 9.66 -8 10 C-9.65 8.02 -11.3 6.04 -13 4 C-12.67 3.34 -12.34 2.68 -12 2 C-10.515 2.99 -10.515 2.99 -9 4 C-9 4.99 -9 5.98 -9 7 C-5.46627288 5.03681826 -2.75520215 2.95929119 0 0 Z " fill="#6C3748" transform="translate(116,184)"/>
<path d="M0 0 C0.66 0 1.32 0 2 0 C3.3125 2.375 3.3125 2.375 4 6 C2.6788875 9.53700238 0.91347644 12.75094268 -1 16 C-1.33 15.34 -1.66 14.68 -2 14 C-1.67 13.01 -1.34 12.02 -1 11 C-2.65 11.33 -4.3 11.66 -6 12 C-6 11.34 -6 10.68 -6 10 C-5.01 10 -4.02 10 -3 10 C-2.87625 9.0925 -2.7525 8.185 -2.625 7.25 C-2.07890323 4.41029677 -1.42736197 2.47409409 0 0 Z " fill="#DACBCE" transform="translate(139,152)"/>
<path d="M0 0 C2.80849619 1.4042481 2.88266612 3.10807701 4 6 C4.556875 6.886875 5.11375 7.77375 5.6875 8.6875 C6.120625 9.450625 6.55375 10.21375 7 11 C6.67 11.66 6.34 12.32 6 13 C5.34 12.67 4.68 12.34 4 12 C4 12.66 4 13.32 4 14 C3.34 14 2.68 14 2 14 C2 13.01 2 12.02 2 11 C0.35 11 -1.3 11 -3 11 C-3 10.01 -3 9.02 -3 8 C-2.34 8 -1.68 8 -1 8 C-1.33 6.02 -1.66 4.04 -2 2 C-1.34 2 -0.68 2 0 2 C0 1.34 0 0.68 0 0 Z " fill="#5D2D3E" transform="translate(67,82)"/>
<path d="M0 0 C4.5565527 3.71274665 6.57400393 8.79007402 9 14 C7.125 15.0625 7.125 15.0625 5 16 C4.34 15.67 3.68 15.34 3 15 C3 14.01 3 13.02 3 12 C2.01 12.33 1.02 12.66 0 13 C0 12.01 0 11.02 0 10 C0.66 10 1.32 10 2 10 C1.505 8.63875 1.505 8.63875 1 7.25 C0 4 0 4 0 0 Z " fill="#5E333F" transform="translate(56,64)"/>
<path d="M0 0 C1.32 0 2.64 0 4 0 C2 5 0 10 -2 15 C-2.99 15 -3.98 15 -5 15 C-6.15837626 10.94568308 -5.83691257 8.78187881 -4 5 C-3.34 5 -2.68 5 -2 5 C-1.34 3.35 -0.68 1.7 0 0 Z " fill="#592C39" transform="translate(138,147)"/>
<path d="M0 0 C0.66 0 1.32 0 2 0 C3.32854177 5.9180497 2.66464729 8.77729131 0 14 C-0.33 13.01 -0.66 12.02 -1 11 C-1.99 11 -2.98 11 -4 11 C-4 11.99 -4 12.98 -4 14 C-4.66 13.67 -5.32 13.34 -6 13 C-5.18796242 11.20812371 -4.37535532 9.41650549 -3.5625 7.625 C-3.11003906 6.62726563 -2.65757812 5.62953125 -2.19140625 4.6015625 C-1.48402684 3.05692417 -0.75977539 1.51955078 0 0 Z " fill="#CCBDC2" transform="translate(158,112)"/>
<path d="M0 0 C15.84 0 31.68 0 48 0 C48 0.66 48 1.32 48 2 C48.66 2 49.32 2 50 2 C50 2.99 50 3.98 50 5 C47.525 4.505 47.525 4.505 45 4 C45.66 3.67 46.32 3.34 47 3 C47 2.34 47 1.68 47 1 C31.49 1 15.98 1 0 1 C0 0.67 0 0.34 0 0 Z " fill="#D4C6CB" transform="translate(173,36)"/>
<path d="M0 0 C1.86844861 2.80267291 2.99879477 5.24231114 4.1875 8.375 C4.55230469 9.31085938 4.91710937 10.24671875 5.29296875 11.2109375 C6.06072472 14.23954394 5.84884925 16.02632427 5 19 C3.68 19 2.36 19 1 19 C0.67 12.73 0.34 6.46 0 0 Z " fill="#774956" transform="translate(72,165)"/>
<path d="M0 0 C2.62451617 2.62451617 2.5832868 4.4877828 3.125 8.125 C3.29257813 9.22070312 3.46015625 10.31640625 3.6328125 11.4453125 C3.75398438 12.28835937 3.87515625 13.13140625 4 14 C2.55753906 14.18369141 2.55753906 14.18369141 1.0859375 14.37109375 C-2.11365555 14.64576118 -2.11365555 14.64576118 -3.375 17.0625 C-3.58125 17.701875 -3.7875 18.34125 -4 19 C-4.25 12.375 -4.25 12.375 -2 9 C-1.34 9 -0.68 9 0 9 C0 6.03 0 3.06 0 0 Z " fill="#5E2C3A" transform="translate(76,99)"/>
<path d="M0 0 C0.33 0 0.66 0 1 0 C1.12586037 7.55162242 1.12586037 7.55162242 0.5 9.78125 C-0.10281436 12.45623873 -0.11224146 14.8986054 -0.09765625 17.640625 C-0.09443359 18.71054688 -0.09121094 19.78046875 -0.08789062 20.8828125 C-0.07951172 21.99398437 -0.07113281 23.10515625 -0.0625 24.25 C-0.05798828 25.37664062 -0.05347656 26.50328125 -0.04882812 27.6640625 C-0.03705397 30.44276217 -0.0206084 33.22135409 0 36 C-2.17467932 32.73798103 -2.24807206 31.80744235 -2.23046875 28.03515625 C-2.22853516 27.07029297 -2.22660156 26.10542969 -2.22460938 25.11132812 C-2.21236328 24.10521484 -2.20011719 23.09910156 -2.1875 22.0625 C-2.18685547 21.06025391 -2.18621094 20.05800781 -2.18554688 19.02539062 C-2.13679069 10.90477679 -2.13679069 10.90477679 -1 7 C-1.66 7 -2.32 7 -3 7 C-2.67 5.35 -2.34 3.7 -2 2 C-1.34 2 -0.68 2 0 2 C0 1.34 0 0.68 0 0 Z " fill="#7C5561" transform="translate(71,124)"/>
<path d="M0 0 C3.71599191 -0.20086443 4.77208445 -0.1519437 8 2 C8 2.66 8 3.32 8 4 C8.66 3.67 9.32 3.34 10 3 C10.33 2.01 10.66 1.02 11 0 C11.28875 0.61875 11.5775 1.2375 11.875 1.875 C12.93720042 4.13325765 12.93720042 4.13325765 15 6 C9.1977825 6.36263859 5.36000789 5.25684543 0 3 C0 2.01 0 1.02 0 0 Z " fill="#2E0E19" transform="translate(136,72)"/>
<path d="M0 0 C0.99 0 1.98 0 3 0 C2.25 6.625 2.25 6.625 0 10 C-0.66 10 -1.32 10 -2 10 C-3.62514468 11.45833358 -3.62514468 11.45833358 -5 13 C-3.125 5.25 -3.125 5.25 -2 3 C-1.34 3 -0.68 3 0 3 C0 2.01 0 1.02 0 0 Z " fill="#EBE1E4" transform="translate(154,123)"/>
<path d="M0 0 C-0.33 1.32 -0.66 2.64 -1 4 C-2.11375 4.28875 -3.2275 4.5775 -4.375 4.875 C-8.00291092 5.69241329 -8.00291092 5.69241329 -10 8 C-11 5 -11 5 -9.8125 2.375 C-8 0 -8 0 -6.0625 -0.875 C-3.82087733 -1.01085592 -2.13005882 -0.68466176 0 0 Z " fill="#E5DEE0" transform="translate(97,38)"/>
<path d="M0 0 C0.66 0.33 1.32 0.66 2 1 C1.04996286 3.48264423 0.09050121 5.96087714 -0.875 8.4375 C-1.14441406 9.14455078 -1.41382813 9.85160156 -1.69140625 10.58007812 C-3.7734375 15.88671875 -3.7734375 15.88671875 -6 17 C-6 15.68 -6 14.36 -6 13 C-5.34 13 -4.68 13 -4 13 C-4.226875 12.113125 -4.45375 11.22625 -4.6875 10.3125 C-5.05541631 6.4125871 -4.40240978 5.02525676 -2 2 C-1.34 2 -0.68 2 0 2 C0 1.34 0 0.68 0 0 Z " fill="#E7DCDD" transform="translate(136,165)"/>
<path d="M0 0 C3.40843742 2.88406243 4.86591384 4.3708265 5.8125 8.8125 C5.9053125 10.3903125 5.9053125 10.3903125 6 12 C5.01 12 4.02 12 3 12 C0.58314288 7.77050005 -0.34833144 4.87664009 0 0 Z " fill="#5F3241" transform="translate(90,132)"/>
<path d="M0 0 C-0.99 0.66 -1.98 1.32 -3 2 C-3.78375 2.556875 -4.5675 3.11375 -5.375 3.6875 C-8.46873543 5.23436771 -9.76462345 5.01683263 -13 4 C-12.67 3.34 -12.34 2.68 -12 2 C-11.34 2.33 -10.68 2.66 -10 3 C-10 1.68 -10 0.36 -10 -1 C-6.06329512 -2.31223496 -3.87511856 -1.24296256 0 0 Z " fill="#E5E1E2" transform="translate(213,43)"/>
<path d="M0 0 C0.33 0.66 0.66 1.32 1 2 C-0.47169811 5.73584906 -0.47169811 5.73584906 -3 7 C-3.33 7.99 -3.66 8.98 -4 10 C-6.64 10 -9.28 10 -12 10 C-10.19489116 7.90987397 -8.9974669 6.99903501 -6.375 6 C-5.199375 5.505 -5.199375 5.505 -4 5 C-3.67 4.01 -3.34 3.02 -3 2 C-2.01 1.34 -1.02 0.68 0 0 Z " fill="#653D48" transform="translate(172,198)"/>
<path d="M0 0 C2.31567384 3.47351075 2.59587577 4.91399472 2 9 C-0.375 10.8125 -0.375 10.8125 -3 12 C-3.99 12.495 -3.99 12.495 -5 13 C-4.39254603 8.14036821 -2.27241033 4.2594482 0 0 Z " fill="#5C2B39" transform="translate(141,160)"/>
<path d="M0 0 C2.27141109 0.11402064 4.54214552 0.24158505 6.8125 0.375 C8.07707031 0.44460937 9.34164062 0.51421875 10.64453125 0.5859375 C14 1 14 1 17 3 C11.39 3 5.78 3 0 3 C0 2.01 0 1.02 0 0 Z " fill="#5C2636" transform="translate(145,244)"/>
<path d="M0 0 C0.33 0 0.66 0 1 0 C1.33 2.31 1.66 4.62 2 7 C2.99 7 3.98 7 5 7 C5 8.32 5 9.64 5 11 C3.68 11.33 2.36 11.66 1 12 C-0.25664978 9.09399739 -1 7.20395416 -1 4 C-1.66 3.67 -2.32 3.34 -3 3 C-2.01 2.67 -1.02 2.34 0 2 C0 1.34 0 0.68 0 0 Z " fill="#37131F" transform="translate(161,108)"/>
<path d="M0 0 C1.18239258 0.00676758 1.18239258 0.00676758 2.38867188 0.01367188 C4.32164761 0.02538688 6.25458393 0.04332002 8.1875 0.0625 C8.1875 0.3925 8.1875 0.7225 8.1875 1.0625 C7.13949219 1.15337891 7.13949219 1.15337891 6.0703125 1.24609375 C5.16023438 1.32988281 4.25015625 1.41367187 3.3125 1.5 C2.40757813 1.58121094 1.50265625 1.66242187 0.5703125 1.74609375 C-1.82360861 1.93239285 -1.82360861 1.93239285 -3.8125 3.0625 C-5.6875 3.23046875 -5.6875 3.23046875 -7.8125 3.25 C-8.864375 3.27126953 -8.864375 3.27126953 -9.9375 3.29296875 C-11.8125 3.0625 -11.8125 3.0625 -13.8125 1.0625 C-9.18790756 -0.11450048 -4.73383538 -0.05158412 0 0 Z " fill="#280D16" transform="translate(64.8125,0.9375)"/>
<path d="M0 0 C0.33 0.66 0.66 1.32 1 2 C1.66 2.33 2.32 2.66 3 3 C1.21385682 4.03046722 -0.57910018 5.04913236 -2.375 6.0625 C-3.87160156 6.91521484 -3.87160156 6.91521484 -5.3984375 7.78515625 C-6.25695312 8.18605469 -7.11546875 8.58695313 -8 9 C-8.66 8.67 -9.32 8.34 -10 8 C-8.74458443 5.48916886 -7.49936512 5.12874554 -5 4 C-5 3.01 -5 2.02 -5 1 C-3.35 0.67 -1.7 0.34 0 0 Z " fill="#633341" transform="translate(165,194)"/>
<path d="M0 0 C0.33 0.99 0.66 1.98 1 3 C0.34 3.66 -0.32 4.32 -1 5 C-1.99 5 -2.98 5 -4 5 C-4.33 5.99 -4.66 6.98 -5 8 C-7.0625 9.1875 -7.0625 9.1875 -9 10 C-9.125 7.625 -9.125 7.625 -9 5 C-7 3 -7 3 -3.9375 2.5 C-2.4834375 2.2525 -2.4834375 2.2525 -1 2 C-0.67 1.34 -0.34 0.68 0 0 Z " fill="#432730" transform="translate(97,39)"/>
<path d="M0 0 C0.33 0.99 0.66 1.98 1 3 C1.66 3 2.32 3 3 3 C2.67 5.97 2.34 8.94 2 12 C1.01 12 0.02 12 -1 12 C-1.02698189 10.37509046 -1.04638757 8.75005367 -1.0625 7.125 C-1.07410156 6.22007812 -1.08570312 5.31515625 -1.09765625 4.3828125 C-1 2 -1 2 0 0 Z " fill="#612336" transform="translate(67,128)"/>
<path d="M0 0 C1.875 0.3125 1.875 0.3125 4 1 C6.1519437 4.22791555 6.20086443 5.28400809 6 9 C5.34 9 4.68 9 4 9 C4 8.34 4 7.68 4 7 C3.01 7.33 2.02 7.66 1 8 C0.67 5.36 0.34 2.72 0 0 Z " fill="#5E2337" transform="translate(96,151)"/>
<path d="M0 0 C0.66 0.66 1.32 1.32 2 2 C1.01 3.485 1.01 3.485 0 5 C-0.60421492 7.38082853 -1.1390323 9.77975094 -1.625 12.1875 C-1.88539062 13.45980469 -2.14578125 14.73210938 -2.4140625 16.04296875 C-2.60742188 17.01878906 -2.80078125 17.99460937 -3 19 C-3.33 19 -3.66 19 -4 19 C-4.31617255 12.36037635 -3.64188422 7.13245664 -1 1 C-0.67 0.67 -0.34 0.34 0 0 Z " fill="#592535" transform="translate(5,46)"/>
<path d="M0 0 C0.66 0 1.32 0 2 0 C1.5547115 5.27315333 0.91626837 10.01770224 -1 15 C-1.33 15 -1.66 15 -2 15 C-2.05429959 13.25034642 -2.09292823 11.50020213 -2.125 9.75 C-2.15980469 8.28820312 -2.15980469 8.28820312 -2.1953125 6.796875 C-1.99862781 3.9803502 -1.44568916 2.39050964 0 0 Z " fill="#1B060A" transform="translate(2,45)"/>
<path d="M0 0 C2 2 2 2 3.5 4.5625 C4.76866837 7.10406871 4.76866837 7.10406871 7 8 C7 8.66 7 9.32 7 10 C6.01 10 5.02 10 4 10 C4 9.34 4 8.68 4 8 C2.68 8.33 1.36 8.66 0 9 C-1.10844919 5.67465243 -0.84454356 3.37817425 0 0 Z " fill="#6F4E59" transform="translate(102,87)"/>
<path d="M0 0 C0.8125 1.625 0.8125 1.625 1 4 C-1.25 7.25 -1.25 7.25 -4 10 C-4.99 10 -5.98 10 -7 10 C-6.1875 7.5625 -6.1875 7.5625 -5 5 C-4.01 4.67 -3.02 4.34 -2 4 C-0.79117904 1.99983534 -0.79117904 1.99983534 0 0 Z " fill="#3D272E" transform="translate(199,52)"/>
<path d="M0 0 C0 0.99 0 1.98 0 3 C0.33 3.33 0.66 3.66 1 4 C1.66 4 2.32 4 3 4 C2.67 5.32 2.34 6.64 2 8 C0.68 8 -0.64 8 -2 8 C-2 8.99 -2 9.98 -2 11 C-2.66 11 -3.32 11 -4 11 C-3.71758359 9.53984709 -3.42373386 8.08190207 -3.125 6.625 C-2.96257812 5.81289062 -2.80015625 5.00078125 -2.6328125 4.1640625 C-2 2 -2 2 0 0 Z " fill="#3E242D" transform="translate(189,64)"/>
<path d="M0 0 C1.875 0.1875 1.875 0.1875 4 1 C5.87679987 4.37823976 6.21849583 7.17632299 6 11 C2.90407165 7.4912812 1.25805377 4.50802601 0 0 Z " fill="#5F3441" transform="translate(126,146)"/>
<path d="M0 0 C2.2477975 2.05233685 3.0022242 3.00667261 4 6 C2.125 7.0625 2.125 7.0625 0 8 C-0.66 7.67 -1.32 7.34 -2 7 C-2 5.02 -2 3.04 -2 1 C-1.34 0.67 -0.68 0.34 0 0 Z " fill="#592A38" transform="translate(61,72)"/>
<path d="M0 0 C0.33 0.99 0.66 1.98 1 3 C0.67 3.66 0.34 4.32 0 5 C0.66 5 1.32 5 2 5 C2 4.01 2 3.02 2 2 C2.66 2 3.32 2 4 2 C3.67 3.65 3.34 5.3 3 7 C1.68 7 0.36 7 -1 7 C-1.33 7.66 -1.66 8.32 -2 9 C-2.33 8.34 -2.66 7.68 -3 7 C-2.06421005 4.64018187 -1.06652192 2.30368736 0 0 Z " fill="#341720" transform="translate(185,70)"/>
<path d="M0 0 C0 0.66 0 1.32 0 2 C-1.98 2.66 -3.96 3.32 -6 4 C-6 4.66 -6 5.32 -6 6 C-7.65 5.67 -9.3 5.34 -11 5 C-9.875 3.0625 -9.875 3.0625 -8 1 C-5.25382145 0.32746648 -2.82009501 0 0 0 Z " fill="#402A31" transform="translate(222,41)"/>
<path d="M0 0 C2.18092036 2.07858979 3.96390469 4.21856618 5.6875 6.6875 C6.12449219 7.31011719 6.56148438 7.93273437 7.01171875 8.57421875 C7.33785156 9.04472656 7.66398437 9.51523438 8 10 C7.01 10.495 7.01 10.495 6 11 C5.67 10.34 5.34 9.68 5 9 C4.34 8.773125 3.68 8.54625 3 8.3125 C2.34 7.879375 1.68 7.44625 1 7 C0.25 3.375 0.25 3.375 0 0 Z " fill="#7A515E" transform="translate(80,185)"/>
<path d="M0 0 C0.66 0.33 1.32 0.66 2 1 C2.73075648 3.3140622 3.40138258 5.64828869 4 8 C3.01 8.99 2.02 9.98 1 11 C-2 6.25 -2 6.25 -2 4 C-1.01 4 -0.02 4 1 4 C0.67 2.68 0.34 1.36 0 0 Z " fill="#754D5B" transform="translate(88,125)"/>
<path d="M0 0 C2.05123248 2.05123248 2.64147118 3.27005063 3.625 5.9375 C3.88539062 6.62714844 4.14578125 7.31679687 4.4140625 8.02734375 C5 10 5 10 5 13 C0.17970402 9.14376321 0.17970402 9.14376321 -0.33203125 5.88671875 C-0.3145776 3.92143786 -0.16596091 1.95833873 0 0 Z " fill="#DCCBD1" transform="translate(106,104)"/>
<path d="M0 0 C3.24745514 4.13312472 5 6.63932628 5 12 C4.34 12 3.68 12 3 12 C1.23537317 8.91190305 1 7.76687864 1 4 C0.34 4 -0.32 4 -1 4 C-0.67 2.68 -0.34 1.36 0 0 Z " fill="#744D5A" transform="translate(99,148)"/>
<path d="M0 0 C1.65 0 3.3 0 5 0 C5.33 1.32 5.66 2.64 6 4 C4.02 4.99 4.02 4.99 2 6 C0 3 0 3 0 0 Z " fill="#260913" transform="translate(169,72)"/>
<path d="M0 0 C3.71599191 -0.20086443 4.77208445 -0.1519437 8 2 C8 1.34 8 0.68 8 0 C8.99 0.33 9.98 0.66 11 1 C10.67 2.65 10.34 4.3 10 6 C9.34 6 8.68 6 8 6 C7.566875 5.54625 7.13375 5.0925 6.6875 4.625 C4.64371183 2.65690769 2.65469676 1.93273129 0 1 C0 0.67 0 0.34 0 0 Z " fill="#E4DBDE" transform="translate(32,42)"/>
<path d="M0 0 C-1.44472346 3.80881639 -3.32603071 5.29742886 -7 7 C-7.99 6.67 -8.98 6.34 -10 6 C-8.71283353 4.99421411 -7.42011342 3.99553202 -6.125 3 C-5.40570313 2.443125 -4.68640625 1.88625 -3.9453125 1.3125 C-2 0 -2 0 0 0 Z " fill="#4D222E" transform="translate(221,231)"/>
<path d="M0 0 C2.5363613 1.01454452 3.79351461 1.6853556 5.3125 4 C5.539375 4.66 5.76625 5.32 6 6 C5.67 6.66 5.34 7.32 5 8 C3.0625 7.25 3.0625 7.25 1 6 C0.20124132 3.86997684 0 2.26695035 0 0 Z " fill="#744351" transform="translate(88,196)"/>
<path d="M0 0 C0.66 0 1.32 0 2 0 C2.33 1.98 2.66 3.96 3 6 C1.02 6.99 1.02 6.99 -1 8 C-1.04241723 5.66705225 -1.04092937 3.33297433 -1 1 C-0.67 0.67 -0.34 0.34 0 0 Z " fill="#4E1E2E" transform="translate(145,130)"/>
<path d="M0 0 C1.32 0 2.64 0 4 0 C4 1.65 4 3.3 4 5 C4.66 5.33 5.32 5.66 6 6 C5.34 7.32 4.68 8.64 4 10 C3.32845067 8.71086513 2.66291141 7.41859796 2 6.125 C1.62875 5.40570313 1.2575 4.68640625 0.875 3.9453125 C0 2 0 2 0 0 Z " fill="#5E3C45" transform="translate(110,112)"/>
<path d="M0 0 C1.65 0.33 3.3 0.66 5 1 C5 1.66 5 2.32 5 3 C4.34 3 3.68 3 3 3 C2.7525 3.804375 2.505 4.60875 2.25 5.4375 C1 8 1 8 -1.125 8.8125 C-1.74375 8.874375 -2.3625 8.93625 -3 9 C-2.505 8.443125 -2.01 7.88625 -1.5 7.3125 C0.24754367 4.61837017 0.26218749 3.14624993 0 0 Z " fill="#320D19" transform="translate(97,37)"/>
<path d="M0 0 C2.64 0 5.28 0 8 0 C8 0.33 8 0.66 8 1 C6.02 1 4.04 1 2 1 C2 1.66 2 2.32 2 3 C2.99 3.33 3.98 3.66 5 4 C4.67 4.66 4.34 5.32 4 6 C2.68 6 1.36 6 0 6 C0 4.02 0 2.04 0 0 Z " fill="#D2BDC2" transform="translate(24,36)"/>
<path d="M0 0 C0.33 1.32 0.66 2.64 1 4 C-1.31 4.33 -3.62 4.66 -6 5 C-6 3.68 -6 2.36 -6 1 C-3.92446352 0.4465236 -2.15634036 0 0 0 Z " fill="#5F2134" transform="translate(94,202)"/>
<path d="M0 0 C2.29633824 3.44450737 2.54016485 5.93812283 3 10 C2.01 9.67 1.02 9.34 0 9 C-1.1875 5.9375 -1.1875 5.9375 -2 3 C-1.34 3 -0.68 3 0 3 C0 2.01 0 1.02 0 0 Z " fill="#602D3C" transform="translate(69,157)"/>
<path d="M0 0 C1.32 0.33 2.64 0.66 4 1 C4.33 4.3 4.66 7.6 5 11 C2.09591658 7.12788877 1.14920536 4.59682146 0 0 Z " fill="#693F4D" transform="translate(121,135)"/>
<path d="M0 0 C0.33 0 0.66 0 1 0 C1 2.64 1 5.28 1 8 C-0.32 7.67 -1.64 7.34 -3 7 C-2.67 5.35 -2.34 3.7 -2 2 C-1.34 2 -0.68 2 0 2 C0 1.34 0 0.68 0 0 Z " fill="#6C404C" transform="translate(71,124)"/>
<path d="M0 0 C0.66 0 1.32 0 2 0 C5 4.38461538 5 4.38461538 5 7 C1.125 6.125 1.125 6.125 0 5 C-0.04063832 3.33382885 -0.042721 1.66611905 0 0 Z " fill="#623343" transform="translate(84,122)"/>
<path d="M0 0 C1.32 0.33 2.64 0.66 4 1 C4 2.32 4 3.64 4 5 C2.02 5 0.04 5 -2 5 C-1.34 3.35 -0.68 1.7 0 0 Z " fill="#270D15" transform="translate(166,80)"/>
<path d="M0 0 C0.99 0.33 1.98 0.66 3 1 C2.34 2.98 1.68 4.96 1 7 C0.34 7 -0.32 7 -1 7 C-1.625 4.625 -1.625 4.625 -2 2 C-1.34 1.34 -0.68 0.68 0 0 Z " fill="#DBD2D5" transform="translate(177,77)"/>
<path d="M0 0 C0.99 0.33 1.98 0.66 3 1 C3 3.31 3 5.62 3 8 C3.66 8.33 4.32 8.66 5 9 C4.01 10.485 4.01 10.485 3 12 C2.01 8.04 1.02 4.08 0 0 Z " fill="#55343F" transform="translate(91,68)"/>
<path d="M0 0 C2.10633718 1.70828921 2.93801608 2.52148416 3.29296875 5.26171875 C3.25816406 6.06222656 3.22335938 6.86273438 3.1875 7.6875 C3.16042969 8.49574219 3.13335937 9.30398437 3.10546875 10.13671875 C3.07066406 10.75160156 3.03585938 11.36648437 3 12 C0.50494038 9.50494038 0.64051624 8.32671112 0.375 4.875 C0.30023438 3.96492188 0.22546875 3.05484375 0.1484375 2.1171875 C0.09945312 1.41851562 0.05046875 0.71984375 0 0 Z " fill="#100206" transform="translate(244,48)"/>
<path d="M0 0 C0.66 0 1.32 0 2 0 C2 0.66 2 1.32 2 2 C2.99 2.33 3.98 2.66 5 3 C2.69 4.65 0.38 6.3 -2 8 C-2.33 7.01 -2.66 6.02 -3 5 C-1.68 4.67 -0.36 4.34 1 4 C0.67 2.68 0.34 1.36 0 0 Z " fill="#5B2D3A" transform="translate(171,187)"/>
<path d="M0 0 C0.99 0 1.98 0 3 0 C3.33 0.66 3.66 1.32 4 2 C3.01 3.485 3.01 3.485 2 5 C-1.125 5.1875 -1.125 5.1875 -4 5 C-3.01 4.67 -2.02 4.34 -1 4 C-0.26676204 1.98491642 -0.26676204 1.98491642 0 0 Z " fill="#D4BFC6" transform="translate(124,188)"/>
<path d="M0 0 C0.66 0.33 1.32 0.66 2 1 C3.32 1 4.64 1 6 1 C6.66 1.99 7.32 2.98 8 4 C5.03 4 2.06 4 -1 4 C-0.67 2.68 -0.34 1.36 0 0 Z " fill="#2E0F1A" transform="translate(89,32)"/>
<path d="M0 0 C0.99 0 1.98 0 3 0 C3 1.98 3 3.96 3 6 C2.01 6.495 2.01 6.495 1 7 C0.34 5.02 -0.32 3.04 -1 1 C-0.67 0.67 -0.34 0.34 0 0 Z " fill="#E2DADA" transform="translate(141,149)"/>
<path d="M0 0 C0.99 0 1.98 0 3 0 C4.0326802 2.78823655 4.04509293 3.8677274 3.0625 6.75 C2.711875 7.4925 2.36125 8.235 2 9 C0.75453595 6.50907189 1.2232422 5.58919267 2 3 C1.01 3.33 0.02 3.66 -1 4 C-0.67 2.68 -0.34 1.36 0 0 Z " fill="#D4C3C8" transform="translate(145,140)"/>
<path d="M0 0 C1.32 0 2.64 0 4 0 C4.33 1.32 4.66 2.64 5 4 C4.34 4 3.68 4 3 4 C3.33 5.32 3.66 6.64 4 8 C3.34 7.67 2.68 7.34 2 7 C1.26924352 4.6859378 0.59861742 2.35171131 0 0 Z " fill="#D7CBD0" transform="translate(90,128)"/>
<path d="M0 0 C0.66 0.33 1.32 0.66 2 1 C2 2.65 2 4.3 2 6 C-0.97 5.505 -0.97 5.505 -4 5 C-3.34 4.01 -2.68 3.02 -2 2 C-1.34 2 -0.68 2 0 2 C0 1.34 0 0.68 0 0 Z " fill="#52303B" transform="translate(116,86)"/>
<path d="M0 0 C2.35171131 0.59861742 4.6859378 1.26924352 7 2 C7.33 2.66 7.66 3.32 8 4 C5.125 4.625 5.125 4.625 2 5 C1.34 4.34 0.68 3.68 0 3 C0 2.01 0 1.02 0 0 Z " fill="#6F4855" transform="translate(32,43)"/>
<path d="M0 0 C0.99 0.33 1.98 0.66 3 1 C3.99 0.67 4.98 0.34 6 0 C6 0.99 6 1.98 6 3 C2.7 3 -0.6 3 -4 3 C-2.68 2.01 -1.36 1.02 0 0 Z " fill="#250B13" transform="translate(218,33)"/>
<path d="M0 0 C0.99 0 1.98 0 3 0 C2.6875 2.375 2.6875 2.375 2 5 C1.01 5.66 0.02 6.32 -1 7 C-1 6.01 -1 5.02 -1 4 C-0.34 4 0.32 4 1 4 C1 3.34 1 2.68 1 2 C0.34 1.67 -0.32 1.34 -1 1 C-0.67 0.67 -0.34 0.34 0 0 Z " fill="#D8C0C7" transform="translate(174,190)"/>
<path d="M0 0 C0.66 0 1.32 0 2 0 C2 1.32 2 2.64 2 4 C2.66 4 3.32 4 4 4 C4 5.98 4 7.96 4 10 C1.16625119 6.79663178 0.4794463 4.21912747 0 0 Z " fill="#7E525F" transform="translate(99,176)"/>
<path d="M0 0 C0.66 0.99 1.32 1.98 2 3 C1.67 3.99 1.34 4.98 1 6 C1.33 6.33 1.66 6.66 2 7 C1.01 8.485 1.01 8.485 0 10 C-0.66 7.69 -1.32 5.38 -2 3 C-1.34 3 -0.68 3 0 3 C0 2.01 0 1.02 0 0 Z " fill="#5B303F" transform="translate(109,102)"/>
<path d="M0 0 C2.475 0.495 2.475 0.495 5 1 C5 2.32 5 3.64 5 5 C3.35 4.67 1.7 4.34 0 4 C0 2.68 0 1.36 0 0 Z " fill="#320D1A" transform="translate(136,83)"/>
<path d="M0 0 C1 3 1 3 0 6 C-2.0625 7.6875 -2.0625 7.6875 -4 9 C-2.94124926 5.59687262 -1.99097846 2.98646769 0 0 Z " fill="#49343B" transform="translate(182,75)"/>
<path d="M0 0 C3.37462715 0.54723683 5.08235 1.0549 8 3 C7.21625 2.95875 6.4325 2.9175 5.625 2.875 C2.83883881 2.71271266 2.83883881 2.71271266 1 5 C0.67 3.35 0.34 1.7 0 0 Z " fill="#220710" transform="translate(168,41)"/>
<path d="M0 0 C0 0.99 0 1.98 0 3 C-2.64 3 -5.28 3 -8 3 C-5.53387212 -0.1151089 -3.89156016 -0.31553191 0 0 Z " fill="#744352" transform="translate(168,205)"/>
<path d="M0 0 C0.99 0.33 1.98 0.66 3 1 C4.1875 3.5625 4.1875 3.5625 5 6 C4.34 6.66 3.68 7.32 3 8 C2.01 5.36 1.02 2.72 0 0 Z " fill="#EEE1E5" transform="translate(114,178)"/>
<path d="M0 0 C0.99 0.495 0.99 0.495 2 1 C2 1.66 2 2.32 2 3 C2.99 3.33 3.98 3.66 5 4 C5 5.98 5 7.96 5 10 C3 9 3 9 2.1484375 6.93359375 C1.89320312 6.10988281 1.63796875 5.28617188 1.375 4.4375 C1.11460938 3.61121094 0.85421875 2.78492188 0.5859375 1.93359375 C0.39257812 1.29550781 0.19921875 0.65742188 0 0 Z " fill="#C7B1B7" transform="translate(104,158)"/>
<path d="M0 0 C-0.66 1.98 -1.32 3.96 -2 6 C-2.33 5.34 -2.66 4.68 -3 4 C-2.67 3.01 -2.34 2.02 -2 1 C-3.65 1.33 -5.3 1.66 -7 2 C-7 1.34 -7 0.68 -7 0 C-2.25 -1.125 -2.25 -1.125 0 0 Z " fill="#C4B3B7" transform="translate(140,162)"/>
<path d="M0 0 C1.37562854 1.28965176 2.70766393 2.62689293 4 4 C4 4.66 4 5.32 4 6 C2.35 6 0.7 6 -1 6 C-0.67 4.02 -0.34 2.04 0 0 Z " fill="#2B0B16" transform="translate(154,97)"/>
<path d="M0 0 C0.66 0 1.32 0 2 0 C2 0.99 2 1.98 2 3 C2.99 2.67 3.98 2.34 5 2 C5.33 3.32 5.66 4.64 6 6 C5.01 6.33 4.02 6.66 3 7 C0 2.25 0 2.25 0 0 Z " fill="#E2D6D8" transform="translate(74,94)"/>
</svg>
