<svg version="1.1" id="Layer_1" xmlns="http://www.w3.org/2000/svg" xmlns:xlink="http://www.w3.org/1999/xlink" x="0px" y="0px"
	 width="100%" viewBox="0 0 1024 1024" enable-background="new 0 0 1024 1024" xml:space="preserve">
<path fill="#000000" opacity="1.000000" stroke="none" 
	d="
M674.000000,1025.000000 
	C449.333344,1025.000000 225.166672,1025.000000 1.000000,1025.000000 
	C1.000000,683.666687 1.000000,342.333344 1.000000,1.000000 
	C342.333344,1.000000 683.666687,1.000000 1025.000000,1.000000 
	C1025.000000,342.333344 1025.000000,683.666687 1025.000000,1025.000000 
	C908.166687,1025.000000 791.333313,1025.000000 674.000000,1025.000000 
M352.940033,769.371094 
	C352.909302,720.527039 352.892517,671.683044 352.813202,622.839050 
	C352.808411,619.888733 352.305359,616.939270 352.120880,613.181030 
	C351.459595,607.048401 349.283173,601.454102 343.213043,599.250305 
	C336.334778,596.753052 329.059937,595.348083 321.799652,593.426392 
	C321.799652,597.757263 321.796356,600.862488 321.800140,603.967712 
	C321.849701,644.720093 321.894562,685.472412 321.955048,726.224792 
	C321.967865,734.873718 321.854156,743.528503 322.131744,752.169861 
	C322.441895,761.824402 326.228119,766.980896 335.482544,769.670105 
	C340.508667,771.130554 345.869934,771.437622 351.559570,772.529663 
	C351.722565,772.447327 351.885529,772.365051 352.770691,772.195068 
	C352.765717,771.521545 352.760773,770.848022 352.940033,769.371094 
M564.449890,241.342072 
	C556.342957,249.905090 548.888794,259.226349 539.998657,266.879669 
	C518.849182,285.086823 494.249451,298.206390 470.235474,312.134949 
	C446.040436,326.168488 422.228943,340.748352 402.073425,360.491089 
	C383.410828,378.771454 367.917755,399.006500 361.574158,425.025299 
	C356.426147,446.140259 358.704956,466.262299 369.382324,485.300598 
	C370.272461,486.887695 371.442261,488.317963 372.482117,489.821106 
	C368.462891,464.473114 377.161530,443.308105 391.505768,423.752930 
	C401.145233,410.611694 412.614960,399.098358 426.073029,390.105865 
	C449.410492,374.512085 473.306549,359.747498 497.095703,344.838440 
	C520.061951,330.445160 541.602112,314.437225 558.429077,292.832428 
	C572.031311,275.367950 581.628967,256.086487 585.611389,233.500046 
	C585.678284,232.328522 585.745117,231.156998 586.038330,229.275253 
	C586.109314,228.537460 586.180237,227.799652 586.609863,226.633560 
	C586.624329,226.083939 586.638855,225.534302 586.894531,224.264328 
	C586.890869,223.507767 586.887207,222.751221 587.116577,221.201920 
	C587.116577,211.786087 587.116577,202.370239 587.116577,192.954407 
	C581.943909,210.081955 574.864075,226.162277 564.449890,241.342072 
M651.882996,766.059570 
	C651.874573,729.001038 651.898499,691.942505 651.816772,654.884094 
	C651.806580,650.262268 651.236572,645.641663 651.024475,640.171326 
	C649.689209,627.971497 646.068787,616.572815 637.062744,607.887939 
	C620.407471,591.826721 599.867310,589.951599 578.424622,593.631287 
	C560.395752,596.725037 546.664490,606.921753 536.250488,622.316956 
	C531.304016,610.252075 523.328613,601.750916 511.586304,597.009277 
	C499.575897,592.159302 487.062347,591.126587 474.346985,592.591736 
	C457.449463,594.538879 443.381561,602.033630 432.065125,615.579285 
	C429.790283,608.479614 427.492493,601.551880 420.195129,598.923889 
	C413.637909,596.562378 406.771210,595.060303 399.320465,592.977661 
	C399.484711,596.553650 399.652924,598.509033 399.652649,600.464478 
	C399.648102,635.438721 399.593719,670.412964 399.616302,705.387207 
	C399.626099,720.541626 399.709290,735.697021 399.914551,750.849854 
	C399.996246,756.879211 401.501862,762.615295 406.886597,766.125122 
	C414.637299,771.176880 423.408661,772.123657 432.248840,772.121704 
	C432.248840,760.490051 432.197205,749.520081 432.259033,738.550720 
	C432.414825,710.911621 432.049042,683.253052 432.998322,655.640381 
	C433.695312,635.366516 447.791199,620.093018 467.750671,617.238403 
	C486.756744,614.520264 502.441925,621.208435 508.428192,640.777222 
	C509.249573,643.462341 509.647095,646.277100 510.139954,649.959900 
	C510.198273,674.857056 510.198639,699.754578 510.345306,724.651184 
	C510.398987,733.763977 510.799713,742.874695 510.905426,752.798035 
	C511.358612,761.653748 516.132751,767.259705 524.414368,769.593872 
	C529.288208,770.967590 534.437866,771.355713 539.457764,772.220581 
	C542.528198,772.749573 542.249878,770.956299 541.923340,768.060791 
	C541.881775,731.047119 541.840149,694.033508 542.050415,656.245728 
	C543.348572,650.783997 544.082703,645.108887 546.052979,639.901489 
	C551.503357,625.495667 565.785583,616.546936 582.190918,616.622559 
	C599.391052,616.701843 611.643677,624.709900 617.325134,639.978943 
	C618.754150,643.819397 619.260742,648.003052 620.082520,652.956665 
	C620.134338,684.343933 620.167786,715.731201 620.271790,747.118286 
	C620.280457,749.743347 620.764465,752.366882 620.919373,755.763000 
	C621.470703,760.737366 624.054321,764.428772 628.268250,766.943176 
	C635.585144,771.309021 643.734558,771.877380 652.321960,772.436096 
	C652.082520,770.238770 651.905151,768.611267 651.882996,766.059570 
M509.316406,488.934265 
	C526.801086,453.806122 559.078552,437.057220 598.139832,442.906128 
	C607.496460,444.307129 616.778442,446.423889 626.179382,447.263733 
	C642.875671,448.755310 651.145996,439.727783 648.376709,423.445892 
	C646.772339,414.012726 649.370789,406.587860 656.748413,400.395111 
	C664.344055,394.019257 664.272156,392.940460 659.040527,384.798737 
	C658.620239,384.144623 658.360596,383.387207 658.021057,382.666504 
	C658.654297,382.244080 659.047791,381.939514 659.477844,381.700867 
	C669.066650,376.380188 669.400940,375.034424 663.422180,365.757019 
	C660.528625,361.266998 661.751343,356.256958 666.732971,352.907227 
	C669.628540,350.960205 672.786377,349.399261 675.654297,347.415985 
	C682.311890,342.811981 682.979980,337.566467 677.778381,331.433868 
	C676.383484,329.789490 674.752136,328.347534 673.260803,326.782715 
	C667.979614,321.241394 662.511292,315.861542 657.495422,310.088959 
	C652.443237,304.274414 650.688782,297.359650 651.771729,289.618744 
	C652.970337,281.051483 654.368225,272.453735 654.690552,263.832306 
	C656.113220,225.769669 640.006226,196.008453 610.570435,172.854568 
	C606.096863,169.335693 601.215210,166.335678 595.469543,162.368851 
	C596.057678,164.950073 596.271973,166.063858 596.566223,167.156113 
	C602.893982,190.648254 604.100708,214.481506 600.482056,238.457932 
	C595.431763,271.919373 579.716797,300.228455 555.781189,323.571503 
	C537.205200,341.687622 517.054199,358.180573 497.793030,375.604706 
	C482.776062,389.189392 469.290558,404.114166 460.324402,422.539948 
	C440.236938,463.820618 447.706787,514.869263 488.066711,542.224426 
	C492.829742,545.452759 498.075256,547.969177 503.981323,551.316772 
	C496.829285,528.868713 500.429871,509.017456 509.316406,488.934265 
M698.994690,649.535767 
	C692.811951,665.974426 691.610657,682.919617 694.207092,700.153931 
	C697.358887,721.074890 706.409119,739.049500 721.807678,753.692993 
	C755.055115,785.310059 817.732422,784.468750 850.980103,745.659485 
	C875.077454,717.531189 880.904358,672.184753 863.794373,639.322632 
	C843.064880,599.508667 798.579468,584.016113 756.334229,595.786133 
	C728.416443,603.564331 710.261047,622.509155 698.994690,649.535767 
M234.733246,774.213501 
	C240.753784,772.365479 247.020294,771.077271 252.747330,768.561218 
	C268.070862,761.828918 279.777710,751.215088 283.793304,734.379395 
	C289.175049,711.815918 279.879272,692.618103 258.011536,681.529175 
	C245.293137,675.079773 231.796066,670.183716 218.894089,664.072021 
	C211.133026,660.395691 203.439819,656.293884 196.455368,651.340881 
	C189.680893,646.536560 187.413666,639.208801 189.605209,630.922119 
	C192.228821,621.001709 199.199661,615.153687 208.448105,611.999023 
	C219.309586,608.294006 230.587219,608.301453 241.339035,611.850159 
	C250.963638,615.026917 260.076324,619.754639 270.241516,624.156006 
	C272.977234,619.533569 276.293488,613.930115 279.784241,608.031799 
	C277.544861,606.663391 276.004089,605.729675 274.470947,604.783691 
	C257.198303,594.125916 238.071518,591.771973 218.333740,592.430847 
	C203.998230,592.909485 190.309753,595.840942 178.112259,603.951721 
	C149.129898,623.223572 148.752304,661.518494 177.791534,679.825928 
	C186.297577,685.188416 195.909851,688.830933 205.118103,693.036194 
	C216.879822,698.407654 228.834351,703.362976 240.526917,708.876892 
	C245.786179,711.357117 249.466156,715.729065 251.126511,721.487244 
	C254.834244,734.345886 248.992844,746.991760 236.191513,752.705200 
	C218.953751,760.398621 201.616013,758.353088 184.845245,751.362305 
	C176.688400,747.962219 169.268219,742.794983 161.168045,738.232483 
	C157.591415,742.901306 153.694244,747.988586 149.489868,753.476868 
	C151.055908,754.788696 152.164825,755.797974 153.356613,756.697510 
	C155.214890,758.099976 157.060486,759.538147 159.030777,760.770447 
	C182.173096,775.245605 207.392090,778.446838 234.733246,774.213501 
M506.520660,228.115845 
	C504.282806,229.218567 502.075409,230.388779 499.802460,231.413589 
	C476.485046,241.926636 452.972961,252.029037 429.878357,263.009857 
	C400.763885,276.852936 375.242157,295.375824 356.969208,322.621948 
	C344.732300,340.867889 337.336548,363.169342 338.041565,381.306335 
	C340.378235,377.046143 342.066589,373.736969 343.961426,370.550507 
	C357.019501,348.591431 375.779144,332.325104 397.891663,320.551147 
	C419.691254,308.943695 442.569916,299.349457 465.055450,289.047150 
	C492.255188,276.584869 518.215942,262.233459 539.632996,240.869904 
	C555.606262,224.936539 568.873169,207.195648 575.464417,185.225250 
	C576.803589,180.761383 577.561340,176.123077 578.587158,171.565186 
	C573.435669,176.230789 569.660950,181.441696 565.311279,186.117859 
	C548.762207,203.909134 528.571228,216.702499 506.520660,228.115845 
M691.041565,443.459045 
	C692.933960,449.706207 694.826294,455.953369 696.675537,462.058197 
	C695.949158,461.978973 694.173401,461.713531 692.388062,461.603088 
	C684.698608,461.127380 677.363281,462.211182 671.285034,467.396393 
	C663.812195,473.771210 663.898682,483.559174 672.051331,488.961090 
	C676.009705,491.583893 681.143860,493.471558 685.834839,493.679138 
	C691.364014,493.923859 696.989624,491.989197 702.300781,491.047760 
	C701.471802,492.465546 700.278259,494.274872 699.313110,496.198761 
	C695.768127,503.265686 695.123108,510.555908 698.396057,517.857178 
	C702.460693,526.924438 711.852783,529.543335 719.917419,523.780029 
	C727.287659,518.513062 729.952148,510.824890 730.104919,502.067078 
	C730.136597,500.250702 730.109497,498.433319 730.109497,497.644135 
	C735.309204,500.644104 740.135803,504.310730 745.572144,506.360199 
	C753.887573,509.495148 762.789001,506.056976 766.003967,499.563141 
	C769.214539,493.077972 766.392639,484.096893 758.907898,479.220764 
	C754.769897,476.524963 749.936462,474.896637 745.349731,472.755951 
	C746.515015,472.015686 748.014160,471.073395 749.503357,470.115509 
	C755.496033,466.260956 759.549622,461.021851 761.090820,453.963501 
	C763.760803,441.735016 756.661865,434.759094 744.503113,437.543793 
	C736.389404,439.402069 730.846436,444.552887 726.301147,451.744415 
	C725.218994,443.482574 722.240662,436.752075 716.135498,431.827209 
	C711.305969,427.931305 705.886414,425.316895 699.551392,428.013031 
	C693.214783,430.709808 691.319092,436.232056 691.041565,443.459045 
M321.859680,563.742493 
	C330.671051,569.205872 339.608398,570.005676 348.422058,563.958740 
	C355.506561,559.098022 358.531708,550.136719 356.443420,541.441956 
	C354.253082,532.322449 347.002197,526.158813 337.341553,525.204529 
	C328.443604,524.325562 318.721619,529.985291 315.094788,538.155518 
	C311.188934,546.954285 313.409088,555.961121 321.859680,563.742493 
z"/>
<path fill="#EDACB4" opacity="1.000000" stroke="none" 
	d="
M509.135193,489.265991 
	C500.429871,509.017456 496.829285,528.868713 503.981323,551.316772 
	C498.075256,547.969177 492.829742,545.452759 488.066711,542.224426 
	C447.706787,514.869263 440.236938,463.820618 460.324402,422.539948 
	C469.290558,404.114166 482.776062,389.189392 497.793030,375.604706 
	C517.054199,358.180573 537.205200,341.687622 555.781189,323.571503 
	C579.716797,300.228455 595.431763,271.919373 600.482056,238.457932 
	C604.100708,214.481506 602.893982,190.648254 596.566223,167.156113 
	C596.271973,166.063858 596.057678,164.950073 595.469543,162.368851 
	C601.215210,166.335678 606.096863,169.335693 610.570435,172.854568 
	C640.006226,196.008453 656.113220,225.769669 654.690552,263.832306 
	C654.368225,272.453735 652.970337,281.051483 651.771729,289.618744 
	C650.688782,297.359650 652.443237,304.274414 657.495422,310.088959 
	C662.511292,315.861542 667.979614,321.241394 673.260803,326.782715 
	C674.752136,328.347534 676.383484,329.789490 677.778381,331.433868 
	C682.979980,337.566467 682.311890,342.811981 675.654297,347.415985 
	C672.786377,349.399261 669.628540,350.960205 666.732971,352.907227 
	C661.751343,356.256958 660.528625,361.266998 663.422180,365.757019 
	C669.400940,375.034424 669.066650,376.380188 659.477844,381.700867 
	C659.047791,381.939514 658.654297,382.244080 658.021057,382.666504 
	C658.360596,383.387207 658.620239,384.144623 659.040527,384.798737 
	C664.272156,392.940460 664.344055,394.019257 656.748413,400.395111 
	C649.370789,406.587860 646.772339,414.012726 648.376709,423.445892 
	C651.145996,439.727783 642.875671,448.755310 626.179382,447.263733 
	C616.778442,446.423889 607.496460,444.307129 598.139832,442.906128 
	C559.078552,437.057220 526.801086,453.806122 509.135193,489.265991 
z"/>
<path fill="#ECABB3" opacity="1.000000" stroke="none" 
	d="
M620.191162,652.028992 
	C619.260742,648.003052 618.754150,643.819397 617.325134,639.978943 
	C611.643677,624.709900 599.391052,616.701843 582.190918,616.622559 
	C565.785583,616.546936 551.503357,625.495667 546.052979,639.901489 
	C544.082703,645.108887 543.348572,650.783997 541.578064,656.797058 
	C540.738892,658.890869 540.054626,660.432739 540.051941,661.975830 
	C539.992126,696.071289 539.984253,730.166809 540.083374,764.262024 
	C540.087952,765.837891 541.180786,767.410645 541.766846,768.984802 
	C542.249878,770.956299 542.528198,772.749573 539.457764,772.220581 
	C534.437866,771.355713 529.288208,770.967590 524.414368,769.593872 
	C516.132751,767.259705 511.358612,761.653748 511.210938,752.055176 
	C511.661011,750.669800 511.931335,750.027344 511.932007,749.384705 
	C511.966003,717.167480 511.996307,684.950256 511.916412,652.733276 
	C511.913361,651.498047 510.824005,650.265625 510.240845,649.031860 
	C509.647095,646.277100 509.249573,643.462341 508.428192,640.777222 
	C502.441925,621.208435 486.756744,614.520264 467.750671,617.238403 
	C447.791199,620.093018 433.695312,635.366516 432.998322,655.640381 
	C432.049042,683.253052 432.414825,710.911621 432.259033,738.550720 
	C432.197205,749.520081 432.248840,760.490051 432.248840,772.121704 
	C423.408661,772.123657 414.637299,771.176880 406.886597,766.125122 
	C401.501862,762.615295 399.996246,756.879211 399.914551,750.849854 
	C399.709290,735.697021 399.626099,720.541626 399.616302,705.387207 
	C399.593719,670.412964 399.648102,635.438721 399.652649,600.464478 
	C399.652924,598.509033 399.484711,596.553650 399.320465,592.977661 
	C406.771210,595.060303 413.637909,596.562378 420.195129,598.923889 
	C427.492493,601.551880 429.790283,608.479614 432.065125,615.579285 
	C443.381561,602.033630 457.449463,594.538879 474.346985,592.591736 
	C487.062347,591.126587 499.575897,592.159302 511.586304,597.009277 
	C523.328613,601.750916 531.304016,610.252075 536.250488,622.316956 
	C546.664490,606.921753 560.395752,596.725037 578.424622,593.631287 
	C599.867310,589.951599 620.407471,591.826721 637.062744,607.887939 
	C646.068787,616.572815 649.689209,627.971497 650.741028,640.934570 
	C650.304810,642.672974 650.018921,643.648010 650.018494,644.623230 
	C649.999939,683.996826 649.989380,723.370544 650.083435,762.743896 
	C650.086853,764.158447 651.155518,765.570557 651.727783,766.983765 
	C651.905151,768.611267 652.082520,770.238770 652.321960,772.436096 
	C643.734558,771.877380 635.585144,771.309021 628.268250,766.943176 
	C624.054321,764.428772 621.470703,760.737366 621.216431,755.043091 
	C621.645996,753.846191 621.894104,753.369263 621.894653,752.892151 
	C621.932190,720.499634 621.969299,688.106995 621.893921,655.714722 
	C621.891052,654.484802 620.783752,653.257507 620.191162,652.028992 
z"/>
<path fill="#ECABB3" opacity="1.000000" stroke="none" 
	d="
M699.099487,649.161865 
	C710.261047,622.509155 728.416443,603.564331 756.334229,595.786133 
	C798.579468,584.016113 843.064880,599.508667 863.794373,639.322632 
	C880.904358,672.184753 875.077454,717.531189 850.980103,745.659485 
	C817.732422,784.468750 755.055115,785.310059 721.807678,753.692993 
	C706.409119,739.049500 697.358887,721.074890 694.207092,700.153931 
	C691.610657,682.919617 692.811951,665.974426 699.099487,649.161865 
M737.150879,642.766174 
	C734.911255,648.821533 731.932373,654.714539 730.560669,660.960510 
	C724.804626,687.169434 726.911865,712.319641 742.982300,734.848083 
	C762.792786,762.619629 803.584167,762.748291 823.843384,735.311279 
	C843.098206,709.234497 844.942383,665.712402 828.011658,637.825073 
	C813.105713,613.273010 785.833557,609.198303 764.824341,616.884155 
	C752.293762,621.468384 744.200500,631.096680 737.150879,642.766174 
z"/>
<path fill="#ECABB3" opacity="1.000000" stroke="none" 
	d="
M585.158691,234.044144 
	C581.628967,256.086487 572.031311,275.367950 558.429077,292.832428 
	C541.602112,314.437225 520.061951,330.445160 497.095703,344.838440 
	C473.306549,359.747498 449.410492,374.512085 426.073029,390.105865 
	C412.614960,399.098358 401.145233,410.611694 391.505768,423.752930 
	C377.161530,443.308105 368.462891,464.473114 372.482117,489.821106 
	C371.442261,488.317963 370.272461,486.887695 369.382324,485.300598 
	C358.704956,466.262299 356.426147,446.140259 361.574158,425.025299 
	C367.917755,399.006500 383.410828,378.771454 402.073425,360.491089 
	C422.228943,340.748352 446.040436,326.168488 470.235474,312.134949 
	C494.249451,298.206390 518.849182,285.086823 539.998657,266.879669 
	C548.888794,259.226349 556.342957,249.905090 565.073608,241.106049 
	C566.809998,239.697174 568.290039,238.706406 568.976074,237.322128 
	C573.747803,227.693527 578.376221,217.993423 582.994324,208.289505 
	C583.789551,206.618378 584.316589,204.819611 584.967468,203.079834 
	C585.183655,203.181015 585.399780,203.282196 585.615967,203.383377 
	C586.038452,209.587143 586.460999,215.790894 586.883545,221.994659 
	C586.887207,222.751221 586.890869,223.507767 586.533264,224.698486 
	C586.198364,225.775711 586.224731,226.418793 586.251099,227.061859 
	C586.180237,227.799652 586.109314,228.537460 585.625977,229.745743 
	C585.195312,231.492203 585.177002,232.768173 585.158691,234.044144 
z"/>
<path fill="#EBABB4" opacity="1.000000" stroke="none" 
	d="
M234.325378,774.346191 
	C207.392090,778.446838 182.173096,775.245605 159.030777,760.770447 
	C157.060486,759.538147 155.214890,758.099976 153.356613,756.697510 
	C152.164825,755.797974 151.055908,754.788696 149.489868,753.476868 
	C153.694244,747.988586 157.591415,742.901306 161.168045,738.232483 
	C169.268219,742.794983 176.688400,747.962219 184.845245,751.362305 
	C201.616013,758.353088 218.953751,760.398621 236.191513,752.705200 
	C248.992844,746.991760 254.834244,734.345886 251.126511,721.487244 
	C249.466156,715.729065 245.786179,711.357117 240.526917,708.876892 
	C228.834351,703.362976 216.879822,698.407654 205.118103,693.036194 
	C195.909851,688.830933 186.297577,685.188416 177.791534,679.825928 
	C148.752304,661.518494 149.129898,623.223572 178.112259,603.951721 
	C190.309753,595.840942 203.998230,592.909485 218.333740,592.430847 
	C238.071518,591.771973 257.198303,594.125916 274.470947,604.783691 
	C276.004089,605.729675 277.544861,606.663391 279.784241,608.031799 
	C276.293488,613.930115 272.977234,619.533569 270.241516,624.156006 
	C260.076324,619.754639 250.963638,615.026917 241.339035,611.850159 
	C230.587219,608.301453 219.309586,608.294006 208.448105,611.999023 
	C199.199661,615.153687 192.228821,621.001709 189.605209,630.922119 
	C187.413666,639.208801 189.680893,646.536560 196.455368,651.340881 
	C203.439819,656.293884 211.133026,660.395691 218.894089,664.072021 
	C231.796066,670.183716 245.293137,675.079773 258.011536,681.529175 
	C279.879272,692.618103 289.175049,711.815918 283.793304,734.379395 
	C279.777710,751.215088 268.070862,761.828918 252.747330,768.561218 
	C247.020294,771.077271 240.753784,772.365479 234.325378,774.346191 
z"/>
<path fill="#ECABB3" opacity="1.000000" stroke="none" 
	d="
M506.861328,227.967224 
	C528.571228,216.702499 548.762207,203.909134 565.311279,186.117859 
	C569.660950,181.441696 573.435669,176.230789 578.587158,171.565186 
	C577.561340,176.123077 576.803589,180.761383 575.464417,185.225250 
	C568.873169,207.195648 555.606262,224.936539 539.632996,240.869904 
	C518.215942,262.233459 492.255188,276.584869 465.055450,289.047150 
	C442.569916,299.349457 419.691254,308.943695 397.891663,320.551147 
	C375.779144,332.325104 357.019501,348.591431 343.961426,370.550507 
	C342.066589,373.736969 340.378235,377.046143 338.041565,381.306335 
	C337.336548,363.169342 344.732300,340.867889 356.969208,322.621948 
	C375.242157,295.375824 400.763885,276.852936 429.878357,263.009857 
	C452.972961,252.029037 476.485046,241.926636 499.802460,231.413589 
	C502.075409,230.388779 504.282806,229.218567 506.861328,227.967224 
z"/>
<path fill="#EBACB3" opacity="1.000000" stroke="none" 
	d="
M691.040649,443.022949 
	C691.319092,436.232056 693.214783,430.709808 699.551392,428.013031 
	C705.886414,425.316895 711.305969,427.931305 716.135498,431.827209 
	C722.240662,436.752075 725.218994,443.482574 726.301147,451.744415 
	C730.846436,444.552887 736.389404,439.402069 744.503113,437.543793 
	C756.661865,434.759094 763.760803,441.735016 761.090820,453.963501 
	C759.549622,461.021851 755.496033,466.260956 749.503357,470.115509 
	C748.014160,471.073395 746.515015,472.015686 745.349731,472.755951 
	C749.936462,474.896637 754.769897,476.524963 758.907898,479.220764 
	C766.392639,484.096893 769.214539,493.077972 766.003967,499.563141 
	C762.789001,506.056976 753.887573,509.495148 745.572144,506.360199 
	C740.135803,504.310730 735.309204,500.644104 730.109497,497.644135 
	C730.109497,498.433319 730.136597,500.250702 730.104919,502.067078 
	C729.952148,510.824890 727.287659,518.513062 719.917419,523.780029 
	C711.852783,529.543335 702.460693,526.924438 698.396057,517.857178 
	C695.123108,510.555908 695.768127,503.265686 699.313110,496.198761 
	C700.278259,494.274872 701.471802,492.465546 702.300781,491.047760 
	C696.989624,491.989197 691.364014,493.923859 685.834839,493.679138 
	C681.143860,493.471558 676.009705,491.583893 672.051331,488.961090 
	C663.898682,483.559174 663.812195,473.771210 671.285034,467.396393 
	C677.363281,462.211182 684.698608,461.127380 692.388062,461.603088 
	C694.173401,461.713531 695.949158,461.978973 696.675537,462.058197 
	C694.826294,455.953369 692.933960,449.706207 691.040649,443.022949 
M713.764709,481.840454 
	C718.940247,484.850372 722.643250,484.652618 725.304260,481.224243 
	C727.843384,477.952759 727.421021,473.362000 724.262512,470.394592 
	C721.117371,467.439728 717.780212,467.335175 714.385742,469.933228 
	C710.657715,472.786591 710.289429,476.604340 713.764709,481.840454 
z"/>
<path fill="#ECABB3" opacity="1.000000" stroke="none" 
	d="
M351.080048,772.264954 
	C345.869934,771.437622 340.508667,771.130554 335.482544,769.670105 
	C326.228119,766.980896 322.441895,761.824402 322.131744,752.169861 
	C321.854156,743.528503 321.967865,734.873718 321.955048,726.224792 
	C321.894562,685.472412 321.849701,644.720093 321.800140,603.967712 
	C321.796356,600.862488 321.799652,597.757263 321.799652,593.426392 
	C329.059937,595.348083 336.334778,596.753052 343.213043,599.250305 
	C349.283173,601.454102 351.459595,607.048401 351.818909,613.911621 
	C351.342712,615.945679 351.016296,617.249207 351.016388,618.552673 
	C351.019073,669.790100 351.051483,721.027527 351.080048,772.264954 
z"/>
<path fill="#EBABB3" opacity="1.000000" stroke="none" 
	d="
M321.575043,563.516235 
	C313.409088,555.961121 311.188934,546.954285 315.094788,538.155518 
	C318.721619,529.985291 328.443604,524.325562 337.341553,525.204529 
	C347.002197,526.158813 354.253082,532.322449 356.443420,541.441956 
	C358.531708,550.136719 355.506561,559.098022 348.422058,563.958740 
	C339.608398,570.005676 330.671051,569.205872 321.575043,563.516235 
z"/>
<path fill="#FFBCC5" opacity="1.000000" stroke="none" 
	d="
M351.319824,772.397339 
	C351.051483,721.027527 351.019073,669.790100 351.016388,618.552673 
	C351.016296,617.249207 351.342712,615.945679 351.775513,614.315796 
	C352.305359,616.939270 352.808411,619.888733 352.813202,622.839050 
	C352.892517,671.683044 352.909302,720.527039 352.639679,770.290161 
	C352.242401,771.567078 352.145477,771.924866 352.048523,772.282715 
	C351.885529,772.365051 351.722565,772.447327 351.319824,772.397339 
z"/>
<path fill="#F6BEC5" opacity="1.000000" stroke="none" 
	d="
M651.805420,766.521667 
	C651.155518,765.570557 650.086853,764.158447 650.083435,762.743896 
	C649.989380,723.370544 649.999939,683.996826 650.018494,644.623230 
	C650.018921,643.648010 650.304810,642.672974 650.691772,641.359131 
	C651.236572,645.641663 651.806580,650.262268 651.816772,654.884094 
	C651.898499,691.942505 651.874573,729.001038 651.805420,766.521667 
z"/>
<path fill="#F5BDC4" opacity="1.000000" stroke="none" 
	d="
M541.845093,768.522827 
	C541.180786,767.410645 540.087952,765.837891 540.083374,764.262024 
	C539.984253,730.166809 539.992126,696.071289 540.051941,661.975830 
	C540.054626,660.432739 540.738892,658.890869 541.452148,657.184082 
	C541.840149,694.033508 541.881775,731.047119 541.845093,768.522827 
z"/>
<path fill="#FCC5CD" opacity="1.000000" stroke="none" 
	d="
M620.136841,652.492798 
	C620.783752,653.257507 621.891052,654.484802 621.893921,655.714722 
	C621.969299,688.106995 621.932190,720.499634 621.894653,752.892151 
	C621.894104,753.369263 621.645996,753.846191 621.270508,754.657104 
	C620.764465,752.366882 620.280457,749.743347 620.271790,747.118286 
	C620.167786,715.731201 620.134338,684.343933 620.136841,652.492798 
z"/>
<path fill="#FBC4CB" opacity="1.000000" stroke="none" 
	d="
M510.190369,649.495850 
	C510.824005,650.265625 511.913361,651.498047 511.916412,652.733276 
	C511.996307,684.950256 511.966003,717.167480 511.932007,749.384705 
	C511.931335,750.027344 511.661011,750.669800 511.279297,751.649353 
	C510.799713,742.874695 510.398987,733.763977 510.345306,724.651184 
	C510.198639,699.754578 510.198273,674.857056 510.190369,649.495850 
z"/>
<path fill="#D2A6AC" opacity="1.000000" stroke="none" 
	d="
M587.000061,221.598297 
	C586.460999,215.790894 586.038452,209.587143 585.615967,203.383377 
	C585.399780,203.282196 585.183655,203.181015 584.967468,203.079834 
	C584.316589,204.819611 583.789551,206.618378 582.994324,208.289505 
	C578.376221,217.993423 573.747803,227.693527 568.976074,237.322128 
	C568.290039,238.706406 566.809998,239.697174 565.361633,240.933914 
	C574.864075,226.162277 581.943909,210.081955 587.116577,192.954407 
	C587.116577,202.370239 587.116577,211.786087 587.000061,221.598297 
z"/>
<path fill="#D2A6AC" opacity="1.000000" stroke="none" 
	d="
M585.385010,233.772095 
	C585.177002,232.768173 585.195312,231.492203 585.512817,230.100861 
	C585.745117,231.156998 585.678284,232.328522 585.385010,233.772095 
z"/>
<path fill="#D2A6AC" opacity="1.000000" stroke="none" 
	d="
M586.430481,226.847717 
	C586.224731,226.418793 586.198364,225.775711 586.412659,225.058655 
	C586.638855,225.534302 586.624329,226.083939 586.430481,226.847717 
z"/>
<path fill="#ECABB3" opacity="1.000000" stroke="none" 
	d="
M352.409607,772.238892 
	C352.145477,771.924866 352.242401,771.567078 352.547546,770.691895 
	C352.760773,770.848022 352.765717,771.521545 352.409607,772.238892 
z"/>
<path fill="#010000" opacity="1.000000" stroke="none" 
	d="
M737.320007,642.437439 
	C744.200500,631.096680 752.293762,621.468384 764.824341,616.884155 
	C785.833557,609.198303 813.105713,613.273010 828.011658,637.825073 
	C844.942383,665.712402 843.098206,709.234497 823.843384,735.311279 
	C803.584167,762.748291 762.792786,762.619629 742.982300,734.848083 
	C726.911865,712.319641 724.804626,687.169434 730.560669,660.960510 
	C731.932373,654.714539 734.911255,648.821533 737.320007,642.437439 
z"/>
<path fill="#0A0405" opacity="1.000000" stroke="none" 
	d="
M713.488159,481.573395 
	C710.289429,476.604340 710.657715,472.786591 714.385742,469.933228 
	C717.780212,467.335175 721.117371,467.439728 724.262512,470.394592 
	C727.421021,473.362000 727.843384,477.952759 725.304260,481.224243 
	C722.643250,484.652618 718.940247,484.850372 713.488159,481.573395 
z"/>
</svg>